<svg xmlns="http://www.w3.org/2000/svg" xmlns:serif="http://www.serif.com/" fill-rule="evenodd" fill="#f8c076" stroke-linejoin="round" stroke-miterlimit="2" clip-rule="evenodd" viewBox="0 0 32 32"><rect width="32" height="32" fill="none" serif:id="abacus mathematic calc"/><path d="M5,24.998l0,3c-0.043,0.912 -0.558,0.98 -0.952,0.998c-0.536,0.026 -1.022,-0.443 -1.048,-0.998l0,-24c0.028,-0.583 0.523,-1.049 1.142,-0.99c0.477,0.092 0.834,0.494 0.858,0.99l0,3l2,0l0,-1c0.011,-0.535 0.401,-0.977 0.98,-1l0.04,0c0.163,0.006 0.216,0.022 0.312,0.056c0.386,0.136 0.66,0.524 0.668,0.944l0,1l2,0l0,-1c0.003,-0.163 0.018,-0.217 0.05,-0.313c0.132,-0.402 0.528,-0.687 0.97,-0.687c0.163,0.006 0.216,0.022 0.312,0.056c0.386,0.136 0.66,0.524 0.668,0.944l0,1l3,0c0.023,0 0.045,0.001 0.068,0.002c0.252,0.026 0.324,0.065 0.452,0.143c0.554,0.337 0.627,1.269 0.057,1.671c-0.163,0.115 -0.271,0.173 -0.577,0.184l-3,0l0,1c-0.015,0.748 -0.985,1.273 -1.61,0.792c-0.241,-0.186 -0.384,-0.483 -0.39,-0.792l0,-1l-2,0l0,1c-0.015,0.769 -1.044,1.309 -1.671,0.741c-0.206,-0.186 -0.323,-0.459 -0.329,-0.741l0,-1l-2,0l0,6l2,0l0,-1c0.003,-0.163 0.018,-0.217 0.05,-0.313c0.136,-0.413 0.553,-0.704 1.01,-0.686c0.518,0.042 0.929,0.438 0.94,0.999l0,1l3,0c0.019,0 0.037,0.001 0.056,0.001c0.229,0.019 0.302,0.054 0.428,0.123c0.739,0.409 0.554,1.846 -0.484,1.876l-3,0l0,1c-0.015,0.769 -1.044,1.309 -1.671,0.741c-0.206,-0.186 -0.323,-0.459 -0.329,-0.741l0,-1l-2,0l0,5.996c1.013,-0.006 2.027,-0.016 3.04,0.004c0.733,0.044 1.228,0.991 0.752,1.61c-0.186,0.241 -0.483,0.383 -0.792,0.39l-3,0Zm22,-18l0,-3c0.028,-0.581 0.523,-1.049 1.142,-0.99c0.478,0.092 0.835,0.502 0.858,0.99l0,24c-0.043,0.912 -0.558,0.98 -0.952,0.998c-0.536,0.026 -1.022,-0.443 -1.048,-0.998l0,-3l-2,0l0,1c-0.018,0.887 -1.453,1.392 -1.906,0.423c-0.061,-0.131 -0.091,-0.276 -0.094,-0.423l0,-1l-2,0l0,1c-0.018,0.887 -1.453,1.392 -1.906,0.423c-0.061,-0.131 -0.091,-0.276 -0.094,-0.423l0,-1l-2,0l0,1c-0.018,0.886 -1.411,1.383 -1.888,0.459c-0.073,-0.141 -0.109,-0.298 -0.112,-0.459l0,-1l-2,0l0,1c-0.018,0.89 -1.456,1.384 -1.906,0.423c-0.061,-0.131 -0.091,-0.276 -0.094,-0.423l0,-4c0.003,-0.163 0.018,-0.217 0.05,-0.313c0.136,-0.414 0.553,-0.704 1.01,-0.686c0.162,0.013 0.214,0.032 0.309,0.069c0.368,0.146 0.623,0.522 0.631,0.93l0,1l2,0l0,-1c0.003,-0.163 0.018,-0.217 0.05,-0.313c0.136,-0.414 0.553,-0.704 1.01,-0.686c0.519,0.042 0.929,0.438 0.94,0.999l0,1l2,0l0,-1c0.003,-0.163 0.018,-0.217 0.05,-0.313c0.136,-0.413 0.553,-0.704 1.01,-0.686c0.518,0.042 0.929,0.438 0.94,0.999l0,1l2,0l0,-1c0.011,-0.55 0.431,-1 1.02,-1c0.013,0 0.026,0.001 0.04,0.001c0.519,0.042 0.929,0.438 0.94,0.999l0,1l2,0l0,-6l-2,0l0,1c-0.018,0.887 -1.453,1.392 -1.906,0.423c-0.061,-0.131 -0.091,-0.276 -0.094,-0.423l0,-1l-2,0l0,1c-0.018,0.886 -1.411,1.383 -1.888,0.459c-0.073,-0.141 -0.109,-0.298 -0.112,-0.459l0,-1l-2,0l0,1c-0.018,0.887 -1.453,1.392 -1.906,0.423c-0.061,-0.131 -0.091,-0.276 -0.094,-0.423l0,-4c0.003,-0.163 0.018,-0.217 0.05,-0.313c0.136,-0.414 0.553,-0.704 1.01,-0.686c0.518,0.042 0.929,0.438 0.94,0.999l0,1l2,0l0,-1c0.003,-0.163 0.018,-0.217 0.05,-0.313c0.136,-0.414 0.553,-0.704 1.01,-0.686c0.518,0.042 0.929,0.438 0.94,0.999l0,1l2,0l0,-1c0.003,-0.163 0.018,-0.217 0.05,-0.313c0.136,-0.414 0.553,-0.704 1.01,-0.686c0.519,0.042 0.929,0.438 0.94,0.999l0,1l2,0l0,-6l-2,0l0,1c-0.018,0.882 -1.415,1.375 -1.888,0.459c-0.073,-0.141 -0.109,-0.298 -0.112,-0.459l0,-1l-2,0l0,1c-0.017,0.878 -1.415,1.374 -1.888,0.459c-0.073,-0.141 -0.109,-0.298 -0.112,-0.459l0,-4c0.003,-0.163 0.018,-0.217 0.05,-0.313c0.132,-0.402 0.528,-0.687 0.97,-0.687c0.534,0.021 0.968,0.42 0.98,1l0,1l2,0l0,-1c0.003,-0.163 0.018,-0.217 0.05,-0.313c0.132,-0.402 0.528,-0.687 0.97,-0.687c0.534,0.021 0.968,0.42 0.98,1l0,1l2,0Z"/></svg>