<svg xmlns="http://www.w3.org/2000/svg" xmlns:serif="http://www.serif.com/" fill-rule="evenodd" fill="#fb977d" stroke-linejoin="round" stroke-miterlimit="2" clip-rule="evenodd" viewBox="0 0 32 32"><rect width="32" height="32" fill="none" serif:id="atom galaxy neutron"/><path d="M4.735,4.68c0.006,-0.007 0.012,-0.013 0.018,-0.019c0.058,-0.057 0.118,-0.112 0.179,-0.165c1.075,-0.947 2.557,-1.336 3.998,-1.335c2.676,0.023 5.227,1.048 7.548,2.464c0.047,0.022 0.085,0.046 0.117,0.073c0.786,0.486 1.546,1.016 2.274,1.567c1.668,1.262 3.197,2.702 4.572,4.275c0,0 0.436,0.616 0.192,1.131c-0.255,0.54 -1.052,0.744 -1.537,0.344c-0.202,-0.167 -0.229,-0.242 -0.326,-0.352c-1.659,-1.865 -3.565,-3.665 -5.658,-5.035c-3.723,2.343 -6.88,5.586 -9.02,9.389c-1.11,1.971 -2.053,4.137 -1.919,6.447c0.051,0.878 0.32,1.769 0.935,2.396c0,0 0.005,0.007 0.014,0.019c0.207,0.158 0.405,0.344 0.63,0.469c1.23,0.689 2.737,0.544 4.039,0.249c0,0 0.753,-0.04 1.058,0.431c0.335,0.519 0.068,1.328 -0.572,1.504c-1.966,0.543 -4.668,0.466 -6.379,-1.069c-0.054,-0.049 -0.102,-0.102 -0.145,-0.158c-0.06,-0.045 -0.117,-0.095 -0.17,-0.153c-1.546,-1.668 -1.61,-4.352 -1.118,-6.455c0.39,-1.664 1.042,-3.254 1.882,-4.756c-1.521,-2.689 -2.675,-5.815 -1.999,-8.713c0.223,-0.955 0.654,-1.889 1.387,-2.548Zm21.146,1.433c-0.023,-0.019 -0.045,-0.04 -0.068,-0.061c-1.216,-1.127 -3.139,-0.993 -4.604,-0.661c0,0 -0.753,0.04 -1.058,-0.431c-0.336,-0.519 -0.068,-1.328 0.572,-1.504c0.782,-0.216 1.619,-0.299 2.458,-0.294c1.48,0.017 3.08,0.418 4.061,1.485c0.521,0.367 0.882,1.088 1.137,1.714c0.717,1.768 0.499,3.779 -0.009,5.564c-0.409,1.434 -0.996,2.806 -1.724,4.111c1.538,2.727 2.693,5.869 1.996,8.766c-0.232,0.965 -0.637,1.982 -1.439,2.561c-0.028,0.031 -0.058,0.06 -0.09,0.089c-1.416,1.279 -3.59,1.54 -5.443,1.263c-3.344,-0.5 -6.427,-2.294 -9.131,-4.452c-1.439,-1.148 -2.769,-2.43 -3.98,-3.815c0,0 -0.33,-0.385 -0.282,-0.815c0.049,-0.44 0.419,-0.818 0.855,-0.879c0.157,-0.021 0.196,-0.006 0.247,-0.003c0.378,0.058 0.392,0.072 0.643,0.337c1.728,1.986 3.704,3.854 5.882,5.261c3.716,-2.342 6.867,-5.581 9.004,-9.378c1.11,-1.971 2.053,-4.137 1.919,-6.447c-0.052,-0.878 -0.32,-1.769 -0.936,-2.396c0,0 -0.003,-0.005 -0.01,-0.015Zm-0.459,11.876c-1.407,2.019 -3.136,3.855 -5.016,5.487c-0.813,0.706 -1.661,1.368 -2.548,1.977c1.379,0.668 2.825,1.132 4.329,1.318c0.178,0.022 0.356,0.039 0.535,0.049c0.136,0.007 0.272,0.011 0.407,0.011c1.002,-0.003 2.031,-0.253 2.737,-0.946c0,0 0.007,-0.005 0.019,-0.014c0.16,-0.209 0.349,-0.412 0.476,-0.642c0.811,-1.464 0.494,-3.259 0.049,-4.756c-0.253,-0.854 -0.591,-1.682 -0.988,-2.484Zm-9.38,-5.487c1.686,0.03 3.225,1.402 3.425,3.075c0.233,1.943 -1.463,3.909 -3.467,3.909c-1.951,0 -3.707,-1.909 -3.467,-3.909c0.198,-1.658 1.699,-3.044 3.425,-3.075c0.042,0 0.042,0 0.084,0Zm-0.06,1.996c-1.171,0.021 -1.969,1.718 -0.984,2.608c0.729,0.659 2.118,0.346 2.431,-0.667c0.267,-0.862 -0.384,-1.887 -1.357,-1.94c-0.03,-0.001 -0.06,-0.001 -0.09,-0.001Zm-1.813,-7.982c-1.554,-0.761 -3.191,-1.253 -4.892,-1.348c-0.135,-0.007 -0.271,-0.011 -0.407,-0.011c-1.001,0.003 -2.031,0.253 -2.736,0.946c0,0 -0.015,0.012 -0.041,0.032c-0.024,0.03 -0.049,0.06 -0.076,0.09c-1.049,1.178 -0.95,2.991 -0.664,4.36c0.247,1.182 0.68,2.319 1.22,3.408c1.469,-2.101 3.279,-3.993 5.191,-5.628c0.77,-0.658 1.568,-1.276 2.405,-1.849Z"/></svg>