<svg xmlns="http://www.w3.org/2000/svg" xmlns:serif="http://www.serif.com/" fill-rule="evenodd" stroke-linejoin="round" stroke-miterlimit="2" clip-rule="evenodd" viewBox="0 0 32 32"><rect width="32" height="32" fill="none" serif:id="atom science molecule"/><path d="M20.677,11.096c-0.533,-0.813 -0.793,-1.804 -0.614,-2.806c0.322,-1.801 1.992,-3.258 3.887,-3.294c0.052,0 0.052,0 0.103,0c2.26,0.043 4.234,2.255 3.912,4.56c-0.265,1.887 -2.047,3.443 -3.963,3.443c-0.654,0 -1.288,-0.187 -1.851,-0.51c-0.299,0.305 -0.597,0.609 -0.91,0.896c0.306,0.478 0.532,1.011 0.652,1.578c0.252,1.193 0.005,2.458 -0.602,3.516l1.463,1.247c0.636,-0.441 1.396,-0.709 2.197,-0.725c0.051,0 0.051,0 0.103,0c2.256,0.043 4.236,2.242 3.911,4.56c-0.264,1.887 -2.046,3.443 -3.963,3.443c-2.306,0 -4.365,-2.326 -3.939,-4.708c0.067,-0.375 0.193,-0.735 0.366,-1.07l-1.445,-1.231c-0.332,0.259 -0.699,0.475 -1.094,0.637c-1.22,0.498 -2.614,0.423 -3.827,-0.097l-1.864,2.177c0.592,0.806 0.905,1.816 0.76,2.85c-0.264,1.887 -2.046,3.443 -3.963,3.443c-2.305,0 -4.365,-2.326 -3.939,-4.709c0.323,-1.801 1.992,-3.258 3.888,-3.294c0.051,0 0.051,0 0.103,0c0.571,0.011 1.124,0.16 1.627,0.414l1.718,-2.007c-0.54,-0.543 -0.959,-1.212 -1.189,-1.981c-0.373,-1.255 -0.165,-2.609 0.457,-3.749c-0.616,-0.575 -1.222,-1.161 -1.834,-1.739c-0.573,-0.558 -0.254,-1.729 0.702,-1.728c0.239,0.007 0.469,0.097 0.649,0.253c0.594,0.544 1.176,1.102 1.759,1.657c0.8,-0.663 1.805,-1.09 2.934,-1.122c0.053,-0.002 0.107,-0.002 0.16,-0.002c0.996,0.01 1.968,0.346 2.784,0.913c0.286,-0.273 0.574,-0.544 0.862,-0.815Zm-10.707,11.907c-1.325,0.025 -2.391,1.594 -1.777,2.867c0.704,1.461 3.481,1.4 3.781,-0.561c0.175,-1.141 -0.762,-2.314 -2.004,-2.306Zm15.006,-2.001c-1.326,0.025 -2.391,1.594 -1.778,2.867c0.705,1.461 3.482,1.401 3.782,-0.561c0.174,-1.141 -0.757,-2.314 -2.004,-2.306Zm-7.996,-8.003c-1.366,0.013 -2.644,1.046 -2.921,2.396c-0.352,1.716 1.114,3.595 2.921,3.606c1.3,0.008 2.547,-0.914 2.906,-2.18c0.493,-1.732 -0.857,-3.765 -2.809,-3.821c-0.032,-0.001 -0.065,-0.001 -0.097,-0.001Zm-9.933,-10.004c2.257,0.043 4.236,2.242 3.911,4.56c-0.264,1.887 -2.046,3.443 -3.963,3.443c-2.305,0 -4.365,-2.326 -3.939,-4.709c0.322,-1.801 1.992,-3.258 3.888,-3.294c0.051,0 0.051,0 0.103,0Zm16.929,4.002c-1.326,0.025 -2.392,1.593 -1.778,2.866c0.705,1.462 3.481,1.401 3.781,-0.56c0.175,-1.14 -0.757,-2.314 -2.003,-2.306Zm-17.007,-2.001c-1.326,0.025 -2.391,1.594 -1.778,2.867c0.705,1.461 3.482,1.4 3.782,-0.561c0.175,-1.141 -0.762,-2.314 -2.004,-2.306Z"/></svg>