<svg xmlns="http://www.w3.org/2000/svg" xmlns:serif="http://www.serif.com/" fill-rule="evenodd" fill="#0085db" stroke-linejoin="round" stroke-miterlimit="2" clip-rule="evenodd" viewBox="0 0 32 32"><rect width="32" height="32" fill="none" serif:id="atoms electron physic"/><path d="M19.677,9.681c0.82,-1.499 2.349,-2.632 4.201,-2.685c0.054,-0.001 0.108,-0.002 0.161,-0.002c2.254,0.022 4.388,1.719 4.863,3.966c0.479,2.266 -0.843,4.786 -3.004,5.67c-1.745,0.714 -3.844,0.249 -5.26,-1.001c-0.017,0.014 -0.034,0.028 -0.052,0.042l-6.004,4.288c-0.006,0.005 -0.013,0.009 -0.02,0.013c0.146,0.316 0.258,0.649 0.331,0.994c0.081,0.383 0.111,0.774 0.093,1.162l4.481,1.034c0.674,-1.242 2.012,-2.131 3.488,-2.159c0.051,0 0.051,0 0.103,0c2.257,0.043 4.237,2.243 3.912,4.561c-0.264,1.887 -2.047,3.444 -3.964,3.444c-2.042,0 -3.891,-1.824 -3.992,-3.897l-4.509,-1.04c-0.526,1.134 -1.449,2.088 -2.616,2.565c-2.547,1.042 -5.858,-0.421 -6.687,-3.204c-0.863,-2.901 1.384,-6.336 4.668,-6.43c0.053,-0.001 0.107,-0.001 0.16,-0.001c1.237,0.011 2.437,0.528 3.347,1.362c0.014,-0.011 0.028,-0.022 0.042,-0.032l6.004,-4.289c0.005,-0.003 0.011,-0.007 0.016,-0.011c-0.081,-0.175 -0.151,-0.358 -0.21,-0.546c-0.193,-0.62 -0.241,-1.265 -0.167,-1.899l-5.344,-1.572c-0.901,-0.289 -0.913,-1.984 0.327,-1.959c0.068,0.004 0.093,0.001 0.238,0.039l5.394,1.587Zm3.303,13.324c-1.326,0.025 -2.392,1.594 -1.778,2.867c0.705,1.462 3.482,1.401 3.782,-0.561c0.175,-1.141 -0.762,-2.314 -2.004,-2.306Zm-13.001,-4.003c-1.359,0.013 -2.643,1.038 -2.922,2.396c-0.351,1.717 1.115,3.596 2.922,3.608c1.3,0.008 2.547,-0.915 2.907,-2.181c0.493,-1.732 -0.857,-3.766 -2.81,-3.822c-0.032,-0.001 -0.065,-0.001 -0.097,-0.001Zm14.008,-10.006c-1.366,0.013 -2.644,1.046 -2.921,2.396c-0.351,1.715 1.111,3.584 2.902,3.607c1.307,0.017 2.565,-0.907 2.927,-2.18c0.493,-1.732 -0.857,-3.767 -2.81,-3.822c-0.033,-0.001 -0.065,-0.001 -0.098,-0.001Zm-16.939,-6.004c2.257,0.043 4.237,2.242 3.912,4.561c-0.264,1.887 -2.047,3.444 -3.964,3.444c-2.306,0 -4.366,-2.327 -3.94,-4.71c0.323,-1.802 1.993,-3.259 3.889,-3.295c0.051,0 0.051,0 0.103,0Zm-0.078,2.001c-1.326,0.025 -2.392,1.594 -1.778,2.868c0.705,1.461 3.482,1.401 3.782,-0.561c0.175,-1.142 -0.762,-2.315 -2.004,-2.307Z"/></svg>