<svg xmlns="http://www.w3.org/2000/svg" xmlns:serif="http://www.serif.com/" fill-rule="evenodd" stroke-linejoin="round" stroke-miterlimit="2" clip-rule="evenodd" viewBox="0 0 32 32"><rect width="32" height="32" fill="none" serif:id="bag school student"/><path d="M10.977,7.013c-0.021,-0.7 -0.019,-1.388 0.195,-1.993c0.403,-1.146 1.546,-1.975 2.785,-1.999c1.356,-0.008 2.713,-0.008 4.069,0c1.548,0.03 2.945,1.365 2.955,2.99l0,1.002l3.973,0c0,0 0.076,0.002 0.164,0.013c0.466,0.098 0.814,0.503 0.834,0.984c0,2.139 0.011,4.278 0,6.416c-0.022,1.325 -0.995,2.566 -2.311,2.882c-2.544,0.581 -5.077,1.19 -7.649,1.19c-2.352,0 -4.67,-0.508 -6.988,-1.038c-0.01,2.846 -0.051,5.693 0.003,8.539c0.016,0.508 0.461,0.955 0.971,0.971l0.019,0.001l0.007,0c0.003,0 0.006,0 0.009,0c3.984,0.075 7.97,0.075 11.954,0c0.004,0 0.008,0 0.012,0l0.007,0l0.019,-0.001c0.516,-0.016 0.968,-0.463 0.972,-1l0,-5.985c0.001,-0.018 0.002,-0.037 0.004,-0.055c0.03,-0.464 0.384,-0.894 0.938,-0.941c0.034,-0.001 0.058,-0.002 0.09,-0.002c2.58,0.025 4.93,2.269 4.955,4.956c0.004,1.048 0.152,2.148 -0.182,3.059c-0.417,1.14 -1.564,1.956 -2.808,1.964l-3.992,0c-3.994,0.026 -7.987,0.026 -11.98,0c-1.343,0 -2.685,0.009 -4.028,0c-1.545,-0.029 -2.925,-1.366 -2.955,-2.955c-0.008,-1.316 -0.122,-2.634 0.324,-3.808c0.594,-1.563 2.019,-2.755 3.667,-3.108l0,-2.513c-0.587,-0.55 -0.965,-1.328 -0.978,-2.156l-0.001,-6.416c0,0 0.214,-0.965 0.998,-0.997l3.948,0Zm13.997,14.151c0.003,1.616 0.009,3.232 -0.002,4.847c-0.006,0.335 -0.073,0.662 -0.191,0.971c0.405,-0.001 0.811,-0.004 1.216,-0.012c0.508,-0.016 0.955,-0.461 0.971,-0.971c0.021,-1.09 0.159,-2.226 -0.22,-3.155c-0.318,-0.777 -0.987,-1.39 -1.774,-1.68Zm-17.964,0.002c-1.118,0.419 -1.983,1.514 -1.995,2.789c-0.002,0.682 -0.013,1.363 0,2.044c0.016,0.516 0.463,0.968 1.001,0.972l1.179,0c-0.117,-0.312 -0.182,-0.647 -0.185,-0.995l0,-4.81Zm12.973,1.813l-7.983,0c-0.868,-0.024 -1.414,-1.424 -0.433,-1.897c0.129,-0.062 0.204,-0.092 0.433,-0.099l7.983,0c0.019,0.001 0.037,0.001 0.056,0.002c0.985,0.083 1.288,1.956 -0.056,1.994Zm-0.993,-15.966c0.001,-0.342 0.001,-0.683 -0.005,-1.025c-0.016,-0.508 -0.459,-0.955 -0.971,-0.971c-1.348,-0.026 -2.697,-0.026 -4.044,0c-0.519,0.016 -0.969,0.478 -0.972,1.001l0,1.992c-0.015,0.532 -0.162,0.591 -0.333,0.745c-0.035,0.031 -0.072,0.059 -0.111,0.083c-0.163,0.105 -0.357,0.162 -0.554,0.17l-3.973,0c0,1.806 -0.048,3.613 0.001,5.419c0.016,0.435 0.343,0.836 0.769,0.938c3.713,0.848 7.435,1.514 11.189,0.712c1.075,-0.233 2.154,-0.449 3.221,-0.717c0.422,-0.111 0.742,-0.517 0.749,-0.956l0,-5.396l-7.964,0c-0.871,-0.036 -1.397,-1.376 -0.475,-1.875c0.133,-0.072 0.206,-0.109 0.475,-0.12l2.998,0Z"/></svg>