<svg xmlns="http://www.w3.org/2000/svg" xmlns:serif="http://www.serif.com/" fill-rule="evenodd" stroke-linejoin="round" stroke-miterlimit="2" clip-rule="evenodd" viewBox="0 0 32 32"><rect width="32" height="32" fill="none" serif:id="bell alarm fire"/><path d="M18.004,19.967c-2.261,1.126 -4.989,1.37 -7.46,0.342c-2.872,-1.195 -5.027,-3.97 -5.46,-7.054c-0.531,-3.797 1.659,-7.827 5.159,-9.437c1.19,-0.547 2.492,-0.822 3.81,-0.818c3.274,0.031 6.459,1.982 7.955,4.902c1.261,2.46 1.296,5.51 0.097,7.997c-0.505,1.046 -1.229,1.97 -2.101,2.732l0,4.273c2.708,-0.501 4.98,-2.975 4.989,-5.909l0,-4.997c0.007,-0.21 0.026,-0.244 0.058,-0.335c0.122,-0.343 0.442,-0.605 0.806,-0.655c0.13,-0.018 0.162,-0.009 0.204,-0.007c0.209,0.021 0.242,0.042 0.33,0.08c0.354,0.154 0.588,0.525 0.602,0.917c0,1.684 0.005,3.367 -0.001,5.051c-0.036,3.812 -3.087,7.338 -6.988,7.876l0,1.073c-0.01,1.552 -1.344,2.966 -2.961,2.996c-2.02,0.013 -4.04,0.001 -6.06,0.001c-1.566,-0.01 -2.986,-1.349 -2.996,-2.997l0,-4.002c0.027,-0.868 1.435,-1.423 1.904,-0.426c0.059,0.125 0.088,0.195 0.096,0.426c0,1.342 -0.026,2.684 0,4.025c0.016,0.514 0.469,0.964 0.986,0.974c2.019,0.013 4.039,0.038 6.058,0c0.516,-0.017 0.97,-0.464 0.973,-1.003l0,-6.025Zm-4.054,-14.967c-3.192,0.03 -6.17,2.457 -6.811,5.588c-0.468,2.286 0.297,4.784 1.968,6.417c1.932,1.886 4.996,2.511 7.532,1.474c2.95,-1.206 4.821,-4.614 4.238,-7.763c-0.58,-3.13 -3.511,-5.643 -6.746,-5.715c-0.06,-0.001 -0.121,-0.002 -0.181,-0.001Zm0.084,3.98c1.985,0.037 3.619,2.384 2.681,4.327c-0.659,1.367 -2.449,2.063 -3.861,1.486c-1.521,-0.622 -2.318,-2.618 -1.563,-4.137c0.49,-0.985 1.541,-1.655 2.666,-1.676c0.038,-0.001 0.038,-0.001 0.077,0Zm-0.052,1.999c-0.878,0.017 -1.438,1.511 -0.383,1.958c0.735,0.311 1.739,-0.554 1.304,-1.402c-0.172,-0.336 -0.538,-0.558 -0.921,-0.556Z"/></svg>