<svg xmlns="http://www.w3.org/2000/svg" xmlns:serif="http://www.serif.com/" fill-rule="evenodd" stroke-linejoin="round" stroke-miterlimit="2" clip-rule="evenodd" viewBox="0 0 32 32"><rect width="32" height="32" fill="none" serif:id="book open novel"/><path d="M7.047,5.929c3.221,0.031 6.417,0.902 9.291,2.288c0.301,0.145 0.64,0.477 0.662,0.947l0,12c-0.033,0.693 -0.361,0.837 -0.673,0.945c-0.595,0.206 -1.295,-0.271 -1.327,-0.945l0,-11.366c-3.128,-1.422 -6.595,-2.13 -9.973,-1.765l-0.027,13.939c3.705,-0.506 7.542,0.472 10.986,2.077c0.24,-0.119 0.481,-0.234 0.725,-0.345c3.214,-1.461 6.785,-2.103 10.281,-1.701l0.008,-13.947c-2.232,-0.205 -4.468,0.001 -6.622,0.561l-0.214,0.052c-0.688,0.082 -0.885,-0.219 -1.042,-0.508c-0.302,-0.554 0.021,-1.288 0.75,-1.479c0.109,-0.028 0.218,-0.056 0.327,-0.083c2.57,-0.631 5.239,-0.783 7.871,-0.435c0,0 0.893,0.223 0.93,1l0,16c-0.03,0.621 -0.595,1.087 -1.267,0.968c-0.03,-0.005 -0.059,-0.01 -0.089,-0.015c-3.754,-0.632 -7.707,0.128 -11.183,1.934c0,0 -0.686,0.109 -1.314,-0.186c-3.397,-1.583 -7.126,-2.551 -10.935,-1.724c0,0 -0.556,0.055 -0.875,-0.229c-0.211,-0.187 -0.324,-0.464 -0.337,-0.748l0,-16c0.049,-1.04 1.604,-1.138 2.876,-1.207c0.39,-0.021 0.78,-0.03 1.171,-0.028Zm0.979,12.235c0,0 1.159,0.078 2.203,0.255c0.661,0.112 1.316,0.256 1.964,0.426c0,0 0.732,0.289 0.8,0.866c0.075,0.637 -0.571,1.251 -1.25,1.084c-1.241,-0.331 -2.519,-0.548 -3.809,-0.633c0,0 -0.939,-0.274 -0.934,-1.004c0.003,-0.516 0.455,-0.976 0.987,-0.994c0.013,0 0.026,0 0.039,0Zm0,-4c0,0 0.759,0.053 1.351,0.129c0.998,0.127 2.021,0.262 2.956,0.593c0.771,0.272 0.871,1.661 -0.079,1.91c-0.116,0.03 -0.236,0.04 -0.355,0.028c-0.696,-0.071 -1.474,-0.351 -2.241,-0.472c-0.572,-0.089 -1.147,-0.152 -1.724,-0.19c0,0 -1.152,-0.397 -0.894,-1.279c0.123,-0.419 0.544,-0.721 0.986,-0.719Zm16.027,0.002c0.807,0.059 1.294,1.262 0.53,1.81c-0.232,0.167 -0.536,0.186 -0.815,0.208c-1.185,0.097 -2.361,0.305 -3.511,0.611c0,0 -0.76,0.071 -1.083,-0.403c-0.353,-0.518 -0.081,-1.343 0.569,-1.53c1.345,-0.358 2.732,-0.595 4.127,-0.691c0,0 0.066,-0.009 0.183,-0.005Zm-16.027,-4.002c0,0 1.159,0.078 2.203,0.255c0.661,0.112 1.316,0.256 1.964,0.426c0,0 0.556,0.182 0.73,0.598c0.28,0.672 -0.373,1.55 -1.18,1.352c-1.241,-0.331 -2.519,-0.548 -3.809,-0.633c0,0 -0.716,-0.165 -0.886,-0.691c-0.189,-0.587 0.274,-1.285 0.939,-1.307c0.013,0 0.026,0 0.039,0Zm16.027,0.002c0.807,0.059 1.294,1.262 0.53,1.81c-0.232,0.167 -0.536,0.186 -0.815,0.208c-1.185,0.097 -2.361,0.305 -3.511,0.611c0,0 -0.976,0.042 -1.206,-0.652c-0.17,-0.514 0.152,-1.125 0.692,-1.281c1.345,-0.358 2.732,-0.595 4.127,-0.691c0,0 0.066,-0.009 0.183,-0.005Z"/></svg>