<svg xmlns="http://www.w3.org/2000/svg" xmlns:serif="http://www.serif.com/" fill-rule="evenodd" stroke-linejoin="round" stroke-miterlimit="2" clip-rule="evenodd" viewBox="0 0 32 32"><rect width="32" height="32" fill="none" serif:id="bookmark ribbon mark"/><path d="M7.178,6.98c0.444,-1.159 1.63,-2.038 2.9,-2.006c1.538,0.038 2.925,1.378 2.935,3.006l0,15.643l2.301,-2.301c0,0 0.822,-0.548 1.419,0l2.301,2.301c0,-5.222 0.097,-10.444 0,-15.665c-0.017,-0.524 -0.482,-0.975 -1.007,-0.978l-2.003,0c-0.286,-0.013 -0.363,-0.055 -0.502,-0.135c-0.525,-0.303 -0.659,-1.127 -0.208,-1.578c0.181,-0.181 0.317,-0.277 0.71,-0.294c0.693,0 1.387,-0.012 2.081,0.001c1.213,0.037 2.321,0.871 2.749,2.006l7.211,0c0.019,0 0.037,0.001 0.056,0.001c0.23,0.02 0.303,0.054 0.429,0.124c0.742,0.41 0.557,1.852 -0.485,1.882l-7.024,0l0,17.058c-0.033,0.748 -0.941,1.269 -1.579,0.822c-0.064,-0.045 -0.077,-0.06 -0.134,-0.112l-3.304,-3.305l-3.305,3.305c0,0 -1.198,0.616 -1.619,-0.286c-0.061,-0.132 -0.087,-0.276 -0.094,-0.424c0,-6.029 0.112,-12.059 0,-18.087c-0.021,-0.675 -0.928,-1.143 -1.528,-0.821c0.556,0.388 0.729,1.384 -0.049,1.753c-0.133,0.063 -0.279,0.093 -0.43,0.097l-5.017,0c-0.744,-0.017 -1.275,-0.973 -0.804,-1.604c0.186,-0.249 0.488,-0.396 0.804,-0.403l3.196,0Z"/></svg>