<svg xmlns="http://www.w3.org/2000/svg" xmlns:serif="http://www.serif.com/" fill-rule="evenodd" fill="#4bd08b" stroke-linejoin="round" stroke-miterlimit="2" clip-rule="evenodd" viewBox="0 0 32 32"><rect width="32" height="32" fill="none" serif:id="books library literature"/><path d="M12.003,28.188c-0.524,0.484 -1.212,0.794 -1.961,0.808c-1.347,0.009 -2.694,0 -4.041,0c-1.558,-0.009 -2.965,-1.349 -2.995,-2.962c-0.042,-6.678 -0.001,-13.356 -0.001,-20.034c0.01,-1.558 1.35,-2.966 2.962,-2.996c1.347,-0.009 2.693,0 4.04,0c1.565,0.009 2.985,1.348 2.996,2.996l0,2.002c-0.037,0.775 -1.036,1.292 -1.655,0.756c-0.21,-0.182 -0.325,-0.33 -0.345,-0.756c0,-0.675 0.013,-1.35 0,-2.026c-0.016,-0.512 -0.469,-0.963 -0.986,-0.973c-1.346,-0.008 -2.692,-0.025 -4.037,0c-0.508,0.016 -0.959,0.46 -0.975,0.975c-0.006,0.34 -0.012,0.681 -0.018,1.021c1.019,-0.006 2.038,-0.016 3.057,0.004c0.877,0.053 1.322,1.466 0.384,1.905c-0.132,0.061 -0.276,0.091 -0.424,0.094l-3.047,0c-0.06,4.665 -0.06,9.331 0,13.996l6.036,0c-0.004,-3 0.01,-6 0.01,-9.001c0.01,-1.551 1.344,-2.965 2.961,-2.995c1.358,-0.009 2.717,-0.009 4.076,0c0.331,0.006 0.656,0.072 0.961,0.187l0,-1.191c0.01,-1.551 1.344,-2.965 2.961,-2.995c1.358,-0.009 2.716,-0.009 4.074,0c1.541,0.028 2.932,1.34 2.962,2.961c0.033,5.346 0,10.691 0,16.036c-0.009,1.558 -1.35,2.966 -2.962,2.996c-1.346,0.009 -2.693,0 -4.039,0c-0.743,-0.004 -1.453,-0.312 -1.996,-0.809c-0.525,0.485 -1.215,0.795 -1.962,0.809c-1.347,0.009 -2.693,0 -4.04,0c-0.743,-0.004 -1.453,-0.312 -1.996,-0.808Zm-1.005,-3.19l-6.011,0c0.006,0.341 0.012,0.683 0.018,1.024c0.016,0.508 0.46,0.959 0.975,0.975c1.349,0.025 2.7,0.025 4.05,0c0.515,-0.017 0.969,-0.463 0.973,-1.001c-0.002,-0.333 -0.004,-0.666 -0.005,-0.998Zm16.046,-2c0.05,-4.34 0.035,-8.682 -0.046,-13.021c-0.015,-0.507 -0.46,-0.959 -0.974,-0.975c-1.35,-0.025 -2.7,-0.025 -4.05,0c-0.517,0.017 -0.97,0.464 -0.974,1.003l0,0.993c1.013,-0.006 2.027,-0.016 3.039,0.004c0.734,0.044 1.229,0.991 0.753,1.609c-0.186,0.241 -0.483,0.384 -0.792,0.39l-3,0l0,1c-0.028,0.645 -0.31,0.781 -0.577,0.906c-0.02,0.009 -0.041,0.018 -0.061,0.025c-0.017,0.007 -0.035,0.014 -0.052,0.019c-0.356,0.116 -0.756,-0.011 -1.018,-0.27c-0.14,-0.135 -0.241,-0.308 -0.276,-0.507c-0.003,-0.017 -0.005,-0.031 -0.007,-0.044c-0.023,-0.157 -0.001,-0.121 -0.015,-0.245c-0.057,-0.48 -0.493,-0.875 -0.98,-0.884c-1.346,-0.009 -2.692,-0.025 -4.038,0c-0.512,0.016 -0.963,0.469 -0.973,0.986c-0.019,3.003 -0.052,6.005 -0.036,9.008c1.025,-0.006 2.05,-0.017 3.075,0.004c0.866,0.052 1.337,1.459 0.383,1.904c-0.131,0.062 -0.275,0.092 -0.423,0.095l-2.999,0l0,1.002l0,0.003l0,0.021c0.016,0.506 0.459,0.956 0.973,0.973c1.35,0.025 2.7,0.025 4.05,0c0.515,-0.016 0.972,-0.465 0.975,-1.003l0,-7.995c0.004,-0.111 0.013,-0.187 0.027,-0.248c0.022,-0.103 0.057,-0.165 0.107,-0.251c0.172,-0.299 0.513,-0.469 0.856,-0.478c0.258,-0.008 0.517,0.074 0.711,0.265c0.002,0.002 0.004,0.004 0.006,0.006c0.176,0.176 0.272,0.311 0.291,0.686c0.001,0.007 0.001,0.014 0.001,0.02l0,4.999l6.044,0Zm-0.028,2l-6.016,0l0,1.002l0,0.003l0.001,0.019c0.016,0.508 0.46,0.959 0.974,0.975c1.35,0.025 2.7,0.025 4.049,0c0.508,-0.016 0.958,-0.461 0.974,-0.975c0.007,-0.341 0.013,-0.683 0.018,-1.024Z"/></svg>