<svg xmlns="http://www.w3.org/2000/svg" xmlns:serif="http://www.serif.com/" fill-rule="evenodd" stroke-linejoin="round" stroke-miterlimit="2" clip-rule="evenodd" viewBox="0 0 32 32"><rect width="32" height="32" fill="none" serif:id="brush art creativity"/><path d="M9.758,18.791c4.949,-4.95 9.869,-9.93 14.849,-14.849c0.467,-0.45 1.042,-0.696 1.73,-0.691c1.834,0.034 3.177,2.444 1.925,4.113l-7.604,9.777c0,0 -0.566,0.522 -1.117,0.333c-0.548,-0.188 -0.834,-0.912 -0.556,-1.426c0.035,-0.065 0.047,-0.078 0.09,-0.138c2.533,-3.257 5.161,-6.441 7.598,-9.77c0.184,-0.257 0.119,-0.669 -0.15,-0.826c-0.2,-0.116 -0.521,0.07 -0.521,0.07l-10.61,10.61c1.289,0.672 2.31,1.834 2.883,3.299c0.002,0.004 0.004,0.009 0.006,0.014c0.145,0.313 0.142,0.695 -0.096,1.014l-3.009,3.869c-0.06,0.197 -0.128,0.393 -0.204,0.586c-0.778,1.981 -2.478,3.594 -4.701,3.908c-2.399,0.339 -4.837,-0.686 -6.625,-2.155c0,0 -0.507,-0.524 -0.374,-1.051c0.15,-0.595 0.933,-0.744 1.652,-1.251c1.847,-1.301 2.108,-4.208 4.212,-5.207c0.2,-0.095 0.408,-0.171 0.622,-0.229Zm3.665,4.396c0.124,-0.789 -0.062,-1.554 -0.756,-2.088c-0.436,-0.337 -1.007,-0.473 -1.554,-0.472c-0.47,0.004 -0.957,0.063 -1.338,0.334c-1.044,0.745 -1.292,2.218 -2.178,3.412c-0.405,0.547 -0.889,1.034 -1.437,1.435l-0.017,0.013c1.847,1.044 4.296,1.492 5.933,-0.144c0.514,-0.513 0.958,-1.191 1.197,-1.891c-0.007,-0.08 -0.002,-0.164 0.014,-0.252c0.023,-0.123 0.07,-0.24 0.136,-0.347Zm0.439,-5.664l-1.327,1.327c1.103,0.364 2.058,1.144 2.544,2.197l1.12,-1.439c-0.079,-0.189 -0.162,-0.381 -0.272,-0.556c-0.468,-0.745 -1.215,-1.271 -2.065,-1.529Z"/></svg>