<svg xmlns="http://www.w3.org/2000/svg" xmlns:serif="http://www.serif.com/" fill-rule="evenodd" stroke-linejoin="round" stroke-miterlimit="2" clip-rule="evenodd" viewBox="0 0 32 32"><rect width="32" height="32" fill="none" serif:id="certificate patent achievement"/><path d="M24.995,23.793c-0.382,-0.123 -0.74,-0.325 -1.043,-0.614c-1.65,-1.573 -0.765,-5.123 2.033,-5.177c0.039,0 0.039,0 0.077,0c1.975,0.038 3.6,2.372 2.668,4.306c-0.334,0.692 -0.962,1.188 -1.685,1.44c0.032,1.117 0,2.18 -0.937,2.259c-0.536,0.045 -1.061,-0.398 -1.085,-0.969c-0.005,-0.392 -0.031,-0.828 -0.028,-1.245Zm-4.978,0.215l-16.016,0c-0.537,-0.024 -0.976,-0.451 -1.001,-1.001l0,-16.016c0.025,-0.538 0.451,-0.976 1.001,-1.001l22.023,0c0.03,0.001 0.061,0.003 0.092,0.004c0.5,0.07 0.885,0.492 0.909,0.997l0,8.008c-0.037,0.788 -1.06,1.302 -1.676,0.74c-0.199,-0.182 -0.307,-0.326 -0.326,-0.74l0,-7.007l-20.021,0l0,14.014l15.015,0c0,0 0.653,0.065 0.897,0.555c0.296,0.596 -0.163,1.413 -0.897,1.447Zm5.993,-4.004c-0.86,0.017 -1.412,1.485 -0.375,1.924c0.737,0.312 1.746,-0.594 1.251,-1.43c-0.18,-0.305 -0.5,-0.496 -0.876,-0.494Zm-7.995,-2.002l-6.006,0c-0.999,-0.024 -1.472,-1.966 0,-2.002l6.006,0c0.017,0.001 0.033,0.001 0.049,0.001c0.987,0.072 1.381,1.967 -0.049,2.001Zm4.005,-4.004l-14.015,0c-0.244,-0.009 -0.311,-0.039 -0.434,-0.099c-0.573,-0.276 -0.755,-1.164 -0.247,-1.636c0.183,-0.17 0.429,-0.257 0.681,-0.267l14.015,0c0.024,0.001 0.049,0.002 0.074,0.003c0.243,0.027 0.307,0.063 0.426,0.131c0.729,0.421 0.539,1.829 -0.5,1.868Z"/></svg>