<svg xmlns="http://www.w3.org/2000/svg" xmlns:serif="http://www.serif.com/" fill-rule="evenodd" stroke-linejoin="round" stroke-miterlimit="2" clip-rule="evenodd" viewBox="0 0 32 32"><rect width="32" height="32" fill="none" serif:id="chem tube test"/><path d="M13.017,11.518l0,-2.684c-0.3,-0.108 -0.326,-0.133 -0.463,-0.209c-1.578,-0.882 -2.017,-3.349 -0.684,-4.715c0.549,-0.561 1.319,-0.889 2.108,-0.904c1.359,-0.008 2.718,-0.008 4.076,0c1.552,0.03 2.951,1.367 2.961,2.996c0,0 -0.166,0.839 -0.777,0.978c-0.582,0.133 -1.204,-0.352 -1.222,-0.974c-0.003,-0.076 -0.003,-0.076 -0.006,-0.104c-0.052,-0.481 -0.483,-0.88 -0.968,-0.896c-1.35,-0.025 -2.701,-0.025 -4.052,0c-0.615,0.02 -1.119,0.684 -0.928,1.297c0.126,0.406 0.528,0.699 0.958,0.702c0.106,0.001 0.974,0.197 0.996,1l0,3.999c-0.003,0.103 -0.01,0.175 -0.024,0.235c-0.031,0.445 -0.404,0.884 -1.006,1.064c-3.083,0.944 -5.278,4.221 -4.928,7.46c0.415,3.834 4.393,6.963 8.454,6.078c2.909,-0.634 5.255,-3.319 5.482,-6.299c0.246,-3.227 -1.949,-6.463 -5.23,-7.318c0,0 -0.823,-0.414 -0.739,-1.098c-0.005,-0.04 -0.008,-0.081 -0.009,-0.122l0,-3.999c0.003,-0.163 0.018,-0.216 0.05,-0.313c0.136,-0.412 0.553,-0.703 1.009,-0.685c0.163,0.013 0.215,0.031 0.31,0.069c0.368,0.146 0.622,0.522 0.631,0.929l0,3.477c1.425,0.482 3.053,1.619 4.162,3.075c2.14,2.81 2.403,6.907 0.616,9.971c-1.646,2.82 -4.914,4.609 -8.182,4.464c-4.241,-0.188 -8.08,-3.742 -8.542,-8.014c-0.429,-3.972 2.085,-8.077 5.947,-9.46Z"/></svg>