<svg xmlns="http://www.w3.org/2000/svg" xmlns:serif="http://www.serif.com/" fill-rule="evenodd" fill="#f8c076" stroke-linejoin="round" stroke-miterlimit="2" clip-rule="evenodd" viewBox="0 0 32 32"><rect width="32" height="32" fill="none" serif:id="cpu processor electronic"/><path d="M10.983,6.984l0,-3.005c0.01,-0.536 0.402,-0.98 0.983,-1.003l0.04,0c0.164,0.006 0.217,0.023 0.313,0.056c0.388,0.137 0.663,0.526 0.671,0.947l0,2.997c0.669,-0.002 1.338,-0.004 2.007,-0.004l0,-2.993c0.004,-0.163 0.019,-0.217 0.051,-0.314c0.132,-0.402 0.529,-0.689 0.973,-0.689c0.163,0.006 0.217,0.023 0.313,0.056c0.388,0.137 0.662,0.526 0.671,0.947l0,2.993c0.669,0 1.338,0.002 2.007,0.004l0,-2.997c0.003,-0.163 0.018,-0.217 0.05,-0.314c0.133,-0.402 0.53,-0.689 0.974,-0.689c0.536,0.021 0.972,0.422 0.983,1.003l0,3.005c0.348,0.002 0.695,0.004 1.043,0.006c1.559,0.03 2.962,1.373 2.972,3.008l0,1.003c1.017,-0.006 2.034,-0.016 3.051,0.005c0.872,0.052 1.32,1.429 0.421,1.894c-0.141,0.073 -0.299,0.109 -0.461,0.112l-3.011,0l0,2.004c1.017,-0.006 2.034,-0.016 3.051,0.004c0.877,0.053 1.322,1.429 0.421,1.895c-0.141,0.073 -0.299,0.109 -0.461,0.112l-4.015,0c-0.091,-0.002 -0.178,-0.019 -0.26,-0.048c-0.166,-0.038 -0.322,-0.119 -0.449,-0.246c-0.186,-0.186 -0.284,-0.445 -0.294,-0.71c0,-2.016 0.038,-4.032 -0.001,-6.048c-0.016,-0.511 -0.461,-0.961 -0.977,-0.977c-1.993,-0.038 -3.987,-0.057 -5.981,-0.058c-0.098,0.014 -0.197,0.015 -0.293,0.001c-1.941,0.001 -3.882,0.02 -5.822,0.057c-0.512,0.016 -0.961,0.461 -0.977,0.977c-0.038,2.006 -0.058,4.013 -0.058,6.02c0.008,0.072 0.008,0.144 0,0.215c0.001,1.954 0.021,3.908 0.058,5.862c0.016,0.511 0.463,0.96 0.977,0.976c0.605,0.012 1.21,0.022 1.815,0.03c0.089,-0.022 0.183,-0.031 0.278,-0.027c0.1,0.008 0.159,0.018 0.211,0.033c1.143,0.013 2.286,0.021 3.429,0.022c0.118,-0.041 0.245,-0.061 0.375,-0.055c0.093,0.007 0.182,0.026 0.266,0.055c1.145,-0.002 2.289,-0.009 3.434,-0.022c0.086,-0.023 0.178,-0.035 0.275,-0.035c0.013,0.001 0.026,0.001 0.039,0.002c0.059,0.004 0.115,0.013 0.17,0.027c0.602,-0.008 1.203,-0.018 1.804,-0.03c0.519,-0.016 0.974,-0.465 0.978,-1.006l0,-2.004c0.015,-0.392 0.09,-0.513 0.189,-0.611c0.139,-0.225 0.399,-0.385 0.814,-0.393c1.352,0 2.704,-0.026 4.055,0.001c0.866,0.052 1.322,1.429 0.421,1.894c-0.141,0.073 -0.299,0.109 -0.461,0.112l-2.986,0c0.021,0.704 0.019,1.396 -0.196,2.005c-0.405,1.151 -1.554,1.986 -2.801,2.01c-0.348,0.002 -0.695,0.004 -1.043,0.006l0,3.005c-0.017,0.89 -1.416,1.388 -1.895,0.461c-0.073,-0.141 -0.109,-0.299 -0.112,-0.461l0,-2.997c-0.669,0.003 -1.338,0.004 -2.007,0.005l0,2.992c-0.018,0.891 -1.458,1.398 -1.913,0.425c-0.062,-0.132 -0.092,-0.277 -0.095,-0.425l0,-2.992c-0.669,-0.001 -1.338,-0.002 -2.007,-0.005l0,2.997c-0.018,0.882 -1.42,1.379 -1.895,0.461c-0.073,-0.141 -0.109,-0.299 -0.112,-0.461l0,-3.005c-0.348,-0.002 -0.695,-0.004 -1.043,-0.006c-1.553,-0.03 -2.941,-1.374 -2.972,-2.972c-0.002,-0.348 -0.004,-0.695 -0.006,-1.043l-3.005,0c-0.885,-0.017 -1.38,-1.419 -0.461,-1.895c0.141,-0.073 0.299,-0.109 0.461,-0.112c0.999,0 1.998,-0.014 2.997,-0.011c-0.002,-0.665 -0.004,-1.331 -0.004,-1.996l-2.993,0c-0.891,-0.018 -1.398,-1.458 -0.425,-1.913c0.132,-0.062 0.277,-0.092 0.425,-0.094c0.998,0 1.995,-0.015 2.993,-0.011c0,-0.666 0.002,-1.331 0.004,-1.997l-2.997,0c-0.88,-0.017 -1.414,-1.45 -0.425,-1.913c0.132,-0.061 0.277,-0.091 0.425,-0.094c1.002,0 2.004,-0.014 3.005,-0.011c0.002,-0.344 0.004,-0.688 0.006,-1.031c0.03,-1.554 1.375,-2.942 2.972,-2.973c0.348,-0.002 0.695,-0.004 1.043,-0.006Zm7.025,12.05l-4.014,0c-0.882,-0.017 -1.379,-1.42 -0.461,-1.895c0.141,-0.073 0.299,-0.109 0.461,-0.112c1.351,0 2.703,-0.026 4.054,0.001c0.87,0.052 1.321,1.429 0.421,1.894c-0.141,0.073 -0.299,0.109 -0.461,0.112Zm2.008,-4.014l-8.03,0c-0.868,-0.025 -1.406,-1.441 -0.435,-1.908c0.129,-0.063 0.205,-0.093 0.435,-0.1l8.03,0c0.018,0.001 0.037,0.001 0.056,0.002c0.988,0.083 1.295,1.968 -0.056,2.006Z"/></svg>