<svg xmlns="http://www.w3.org/2000/svg" xmlns:serif="http://www.serif.com/" fill-rule="evenodd" fill="#0085db" stroke-linejoin="round" stroke-miterlimit="2" clip-rule="evenodd" viewBox="0 0 32 32"><rect width="32" height="32" fill="none" serif:id="creativity palette colour"/><path d="M16.413,3c1.75,0.021 3.826,1.172 3.432,3.614c0,0 -0.277,0.813 -0.922,0.856c-0.619,0.041 -1.125,-0.558 -1.04,-1.234c0.128,-1.132 -1.696,-1.453 -3.448,-0.903c-4.324,1.357 -7.807,5.465 -8.069,10.064c-0.183,3.223 0.796,6.735 3.02,8.77c3.402,3.115 9.049,3.699 12.906,1.757c1.699,-0.855 2.798,-2.462 3.163,-4.788c0.253,-1.611 -0.007,-3.364 -1.02,-4.658c-1.483,-1.893 -4.013,-2.736 -5.895,-4.097c-0.754,-0.546 -1.453,-1.281 -1.592,-2.254c0,0 -0.041,-0.54 0.299,-0.865c0.525,-0.499 1.536,-0.178 1.678,0.581c0.221,1.187 1.999,1.657 3.337,2.421c2.208,1.271 4.298,3 4.996,5.41c0.955,3.3 -0.142,7.222 -2.69,9.176c-3.624,2.778 -9.049,2.589 -12.98,0.988c-2.588,-1.053 -4.822,-2.987 -5.918,-5.63c-1.679,-4.052 -1.85,-8.774 0.449,-12.638c1.748,-2.937 4.635,-5.218 7.851,-6.183c0.792,-0.238 1.614,-0.391 2.443,-0.387Zm3.559,15.972c1.969,0.037 3.59,2.365 2.66,4.294c-0.81,1.681 -3.365,2.204 -4.765,0.869c-1.646,-1.569 -0.763,-5.11 2.028,-5.163c0.038,-0.001 0.038,-0.001 0.077,0Zm-0.052,1.997c-0.859,0.016 -1.409,1.48 -0.375,1.918c0.733,0.31 1.733,-0.585 1.255,-1.416c-0.179,-0.31 -0.505,-0.505 -0.88,-0.502Zm-7.936,-3.994c1.97,0.037 3.591,2.365 2.661,4.294c-0.811,1.681 -3.366,2.204 -4.766,0.869c-1.646,-1.569 -0.763,-5.11 2.028,-5.163c0.038,0 0.038,0 0.077,0Zm-0.052,1.997c-0.859,0.016 -1.409,1.48 -0.374,1.918c0.732,0.31 1.732,-0.585 1.254,-1.416c-0.178,-0.31 -0.504,-0.505 -0.88,-0.502Zm0.052,-9.985c1.97,0.037 3.591,2.366 2.661,4.294c-0.811,1.681 -3.366,2.204 -4.766,0.869c-1.646,-1.569 -0.763,-5.11 2.028,-5.163c0.038,0 0.038,0 0.077,0Zm-0.052,1.997c-0.859,0.016 -1.409,1.481 -0.374,1.919c0.732,0.31 1.732,-0.586 1.254,-1.417c-0.178,-0.31 -0.505,-0.505 -0.88,-0.502Z"/></svg>