<svg xmlns="http://www.w3.org/2000/svg" xmlns:serif="http://www.serif.com/" fill-rule="evenodd" fill="#fb977d" stroke-linejoin="round" stroke-miterlimit="2" clip-rule="evenodd" viewBox="0 0 32 32"><rect width="32" height="32" fill="none" serif:id="cube geometry 3d"/><path d="M9.993,3.001l0.007,-0.001l18,0c0.031,0.002 0.062,0.003 0.092,0.004c0.5,0.07 0.884,0.484 0.908,0.996l0,18c-0.014,0.32 -0.026,0.398 -0.161,0.559c-0.062,0.119 -0.154,0.222 -0.282,0.299l-1.85,1.849c-0.478,0.435 -0.794,0.328 -1.056,0.23c-0.616,-0.23 -0.832,-1.123 -0.358,-1.644l0.373,-0.373c-0.226,-0.081 -0.408,-0.21 -0.527,-0.412c-0.346,-0.586 0.084,-1.476 0.833,-1.508c0.343,-0.004 0.685,-0.007 1.028,-0.007l0,-15.993l-15.96,0c0.029,0.817 -0.008,1.553 -0.532,1.861c-0.497,0.294 -1.213,0.028 -1.438,-0.516l-2.655,2.655l15.165,0c0.566,-0.574 1.143,-1.137 1.713,-1.707c0.199,-0.194 0.401,-0.297 0.735,-0.292c0.764,0.032 1.275,1.059 0.699,1.686c-0.568,0.584 -1.149,1.154 -1.727,1.728l0,17.585c-0.022,0.533 -0.46,0.977 -1,1l-18,0c-0.446,-0.019 -0.831,-0.33 -0.957,-0.748c-0.03,-0.091 -0.046,-0.188 -0.043,-0.291l0,-17.961c0.001,-0.015 0.002,-0.03 0.003,-0.045c0.009,-0.183 0.066,-0.363 0.169,-0.515c0.048,-0.071 0.064,-0.085 0.121,-0.147l6,-6l0.012,-0.011c0.045,-0.051 0.096,-0.095 0.153,-0.134c0.14,-0.113 0.22,-0.131 0.434,-0.143c0.032,-0.003 0.066,-0.004 0.101,-0.004Zm-3.573,23.999l14.58,0l0,-16l-16,0l0,14.585c0.098,-0.098 0.196,-0.195 0.293,-0.292c0.2,-0.194 0.4,-0.297 0.735,-0.293c0.764,0.032 1.276,1.06 0.699,1.687c-0.102,0.105 -0.204,0.209 -0.307,0.313Zm3.595,-6c0.757,0.019 1.317,1.044 0.706,1.693c-0.585,0.597 -1.133,1.371 -1.819,1.306c-0.726,-0.07 -1.198,-1.081 -0.626,-1.689c0.537,-0.548 1.02,-1.273 1.679,-1.309c0.02,-0.001 0.04,-0.001 0.06,-0.001Zm8.013,0c0.85,0.036 1.365,1.439 0.406,1.901c-0.126,0.061 -0.265,0.093 -0.406,0.098c-1.167,0.017 -2.453,0.248 -2.889,-0.491c-0.346,-0.586 0.084,-1.476 0.833,-1.508c0.685,-0.009 1.371,-0.009 2.056,0Zm-8,-8c0.513,0.022 0.95,0.452 0.972,0.972c0.015,1.086 0.253,2.308 -0.376,2.81c-0.564,0.45 -1.588,0.078 -1.623,-0.754c-0.018,-1.284 -0.308,-3.046 1.027,-3.028Z"/></svg>