<svg xmlns="http://www.w3.org/2000/svg" xmlns:serif="http://www.serif.com/" fill-rule="evenodd" fill="#8763da" stroke-linejoin="round" stroke-miterlimit="2" clip-rule="evenodd" viewBox="0 0 32 32"><rect width="32" height="32" fill="none" serif:id="dna biology generation"/><path d="M7,11.202c-0.729,-0.133 -1.47,-0.202 -2.213,-0.204l-0.788,0c-0.875,-0.027 -1.409,-1.453 -0.418,-1.909c0.375,-0.173 0.857,-0.093 1.289,-0.092c2.651,0.023 5.282,0.788 7.529,2.167c0.112,0.048 0.212,0.11 0.296,0.186c0.466,0.302 0.915,0.631 1.342,0.986c0.637,0.529 0.503,1.767 -0.426,1.86c-0.218,0.022 -0.417,-0.045 -0.609,-0.155l0,3.825c0.903,-0.818 1.697,-1.76 2.393,-2.748c2.656,-3.742 7.118,-6.094 11.766,-6.121l0.846,0c0.031,0.002 0.063,0.003 0.095,0.005c0.623,0.089 0.71,0.351 0.815,0.58c0.274,0.601 -0.206,1.382 -0.91,1.416c-1.327,0 -2.66,0.07 -3.939,0.404c-1.084,0.283 -2.11,0.731 -3.064,1.306l0,6.606c0.638,0.367 1.308,0.679 2.001,0.931l0,-6.246c0.005,-0.174 0.02,-0.222 0.051,-0.314c0.135,-0.409 0.467,-0.686 0.976,-0.686c0.018,0.001 0.035,0.002 0.053,0.003c0.173,0.018 0.219,0.037 0.309,0.075c0.364,0.153 0.599,0.449 0.612,0.922l0,6.794c0.726,0.135 1.467,0.206 2.212,0.208l0.789,0c0.746,0.025 0.82,0.322 0.942,0.665c0.198,0.555 -0.203,1.243 -0.806,1.326c-0.44,0.061 -0.69,0.011 -1.039,0.009c-4.239,-0.041 -8.386,-2.036 -11.1,-5.327c-2.699,3.279 -6.848,5.302 -11.159,5.327l-0.846,0.001c0,0 -0.889,-0.155 -0.99,-0.858c-0.081,-0.564 0.403,-1.115 0.99,-1.143c2.319,0 4.653,-0.393 6.677,-1.477c0.11,-0.058 0.218,-0.119 0.325,-0.181l0,-6.686c-0.638,-0.365 -1.308,-0.672 -2,-0.919l0,6.262c-0.014,0.51 -0.147,0.565 -0.303,0.717c-0.536,0.522 -1.652,0.181 -1.697,-0.664c-0.001,-0.017 -0.001,-0.035 -0.001,-0.053l0,-6.798Zm12.004,2.986c-0.634,0.563 -1.219,1.183 -1.751,1.842c0.517,0.681 1.106,1.305 1.751,1.864l0,-3.706Z"/></svg>