<svg xmlns="http://www.w3.org/2000/svg" xmlns:serif="http://www.serif.com/" fill-rule="evenodd" stroke-linejoin="round" stroke-miterlimit="2" clip-rule="evenodd" viewBox="0 0 32 32"><rect width="32" height="32" fill="none" serif:id="elearning phone online"/><path d="M26.029,7.014c1.546,0.029 2.93,1.349 2.96,2.96c0.025,4.01 0,8.02 0,12.03c-0.009,1.558 -1.349,2.965 -2.96,2.995c-6.674,0.041 -13.349,0 -20.024,0c-1.557,-0.01 -2.964,-1.349 -2.994,-2.96c-0.025,-4.01 0,-8.021 0,-12.031c0.01,-1.557 1.349,-2.964 2.96,-2.994c6.686,-0.041 13.372,-0.041 20.058,0Zm1.004,5.995c-0.01,-1.008 -0.024,-2.015 -0.042,-3.022c-0.016,-0.509 -0.46,-0.959 -0.974,-0.974c-6.668,-0.125 -13.337,-0.001 -20.005,-0.001c-0.522,0.003 -0.993,0.457 -1.003,0.987c-0.025,4.009 -0.074,8.019 0.001,12.027c0.015,0.507 0.459,0.958 0.974,0.974c6.676,0.124 13.356,0.124 20.033,0c0.507,-0.016 0.958,-0.46 0.974,-0.974c0.018,-1.007 0.032,-2.015 0.042,-3.022l-0.042,0c-1.104,0 -1.998,-0.895 -1.998,-1.998l0,-1.999c0,-0.53 0.21,-1.038 0.585,-1.413c0.375,-0.375 0.883,-0.585 1.413,-0.585l0.042,0Zm-14.862,-1.998c1.414,0.017 2.758,0.684 3.842,1.625c0,0 0.665,-0.562 1.355,-0.934c0.84,-0.454 1.797,-0.797 2.748,-0.682c0.801,0.096 1.169,1.37 0.406,1.842c-0.112,0.069 -0.236,0.115 -0.366,0.136c-0.196,0.032 -0.434,0.013 -0.661,0.048c-1.103,0.172 -2.032,0.908 -2.786,1.668c0,0 -0.895,0.55 -1.463,-0.047c-0.027,-0.029 -0.055,-0.057 -0.083,-0.086c-0.036,-0.037 -0.073,-0.073 -0.109,-0.11c-0.587,-0.577 -1.262,-1.086 -2.043,-1.328l-0.008,3.919c1.126,0.194 2.158,0.812 3.023,1.575c0.044,-0.036 0.087,-0.072 0.132,-0.107c0.824,-0.655 1.759,-1.181 2.784,-1.407l0.056,-0.012l0,-1.105c0.006,-0.229 0.036,-0.304 0.099,-0.433c0.295,-0.613 1.29,-0.743 1.715,-0.145c0.086,0.122 0.145,0.263 0.17,0.411c0.009,0.055 0.012,0.111 0.014,0.167l0,2.001c-0.005,0.181 -0.022,0.232 -0.056,0.329c-0.146,0.42 -0.582,0.654 -1.058,0.672c-1.264,0.058 -2.343,0.891 -3.184,1.712c0,0 -0.812,0.585 -1.424,-0.029c-0.158,-0.167 -0.32,-0.328 -0.489,-0.483c-0.099,-0.091 -0.201,-0.179 -0.306,-0.264c-0.088,-0.072 -0.179,-0.142 -0.271,-0.209c-0.616,-0.448 -1.361,-0.783 -2.138,-0.731c0,0 -1.041,-0.118 -1.066,-0.997l0,-5.995c0.005,-0.179 0.022,-0.229 0.054,-0.325c0.143,-0.414 0.567,-0.671 1.033,-0.676c0.04,0 0.04,0 0.08,0Z"/></svg>