<svg xmlns="http://www.w3.org/2000/svg" xmlns:serif="http://www.serif.com/" fill-rule="evenodd" stroke-linejoin="round" stroke-miterlimit="2" clip-rule="evenodd" viewBox="0 0 32 32"><rect width="32" height="32" fill="none" serif:id="flask chemical bottle"/><path d="M18.242,7.029c0.435,0.128 0.742,0.512 0.764,0.971l0,7.692c1.923,2.885 3.859,5.762 5.77,8.655c1.15,1.775 -0.086,4.608 -2.483,4.639c-4.19,0.019 -8.38,0.019 -12.57,0c-2.097,-0.027 -3.771,-2.651 -2.483,-4.639l5.77,-8.655l0,-6.863c-0.3,-0.108 -0.325,-0.133 -0.462,-0.209c-1.578,-0.882 -2.017,-3.348 -0.684,-4.713c0.548,-0.561 1.318,-0.888 2.107,-0.903c1.346,-0.009 2.693,0 4.039,0c1.568,0.01 2.984,1.348 2.995,2.994c0,0 -0.18,0.895 -0.857,0.993c-0.503,0.072 -1.028,-0.301 -1.124,-0.8c-0.053,-0.273 -0.01,-0.154 -0.023,-0.293c-0.052,-0.484 -0.491,-0.886 -0.981,-0.896c-1.346,-0.008 -2.692,-0.025 -4.037,0.001c-0.854,0.027 -1.362,1.468 -0.384,1.91c0.321,0.145 0.594,0.105 0.594,0.105c0.46,0.108 0.794,0.509 0.816,0.982l0,7.995c-0.016,0.377 -0.046,0.353 -0.168,0.554c-1.979,2.969 -4.022,5.896 -5.937,8.907c-0.365,0.585 0.064,1.515 0.828,1.532c4.187,0.054 8.375,0.089 12.561,-0.001c0.694,-0.02 1.22,-0.902 0.815,-1.538c-0.005,-0.009 -0.005,-0.009 -0.011,-0.017l-5.922,-8.883c0,0 -0.156,-0.283 -0.168,-0.554l0,-7.995c0.03,-0.615 0.6,-1.093 1.235,-0.971Z"/></svg>