<svg xmlns="http://www.w3.org/2000/svg" xmlns:serif="http://www.serif.com/" fill-rule="evenodd" stroke-linejoin="round" stroke-miterlimit="2" clip-rule="evenodd" viewBox="0 0 32 32"><rect width="32" height="32" fill="none" serif:id="friends study group"/><path d="M13.076,15.774c-0.926,-0.646 -1.643,-1.582 -1.928,-2.716c-0.714,-2.84 1.635,-6.026 4.823,-6.056c0.021,0 0.042,0 0.064,0c2.495,0.023 4.829,2.12 4.96,4.636c0.084,1.609 -0.74,3.205 -2.034,4.172c1.203,0.914 2.025,2.346 2.04,3.933l0,4.255c0,0 -0.418,1.299 -1.362,0.932c-0.336,-0.131 -0.589,-0.458 -0.63,-0.818c-0.006,-0.051 -0.006,-0.063 -0.007,-0.114c0,-1.421 0.013,-2.842 0,-4.262c-0.025,-1.595 -1.51,-3.028 -3.137,-2.955c-1.507,0.066 -2.846,1.397 -2.861,2.974l-0.001,3.243l3,0c0.233,0.007 0.31,0.038 0.441,0.103c0.601,0.295 0.743,1.273 0.146,1.706c-0.123,0.089 -0.267,0.15 -0.417,0.176c-0.056,0.01 -0.113,0.013 -0.17,0.015l-3.999,0c-0.183,-0.005 -0.233,-0.022 -0.33,-0.056c-0.392,-0.137 -0.656,-0.446 -0.67,-0.944c0,-1.418 -0.004,-2.837 0,-4.255c0.015,-1.562 0.83,-3.038 2.072,-3.969Zm10.007,0.227c0.024,-0.003 0.047,-0.005 0.071,-0.007c0.75,-0.062 1.435,-0.57 1.708,-1.261c0.469,-1.188 -0.447,-2.728 -1.864,-2.732c0,0 -0.945,-0.224 -0.994,-0.931c-0.037,-0.527 0.398,-1.029 0.952,-1.068c0.035,0 0.035,-0.001 0.071,0c1.818,0.017 3.522,1.39 3.892,3.194c0.284,1.389 -0.289,2.856 -1.346,3.798c0.849,0.733 1.416,1.803 1.427,2.979l0,4.025c0,0 -0.155,0.978 -1,1l-2.999,0c-0.854,-0.023 -1.417,-1.4 -0.454,-1.891c0.093,-0.047 0.194,-0.08 0.298,-0.096c0.051,-0.009 0.104,-0.011 0.156,-0.013l1.999,0c0,-1.013 0.016,-2.025 0,-3.038c-0.023,-1.03 -0.93,-1.957 -2.002,-1.961c0,0 -0.195,-0.045 -0.412,-0.162c-0.254,-0.131 -0.532,-0.355 -0.577,-0.714c-0.003,-0.023 -0.005,-0.046 -0.006,-0.068c-0.001,-0.019 -0.002,-0.039 -0.002,-0.058c0.002,-0.506 0.424,-0.956 0.951,-0.996c0.037,-0.001 0.037,-0.001 0.075,-0.001c0.019,0 0.037,0.001 0.056,0.001Zm-16.672,1.009c-0.694,-0.597 -1.197,-1.421 -1.352,-2.352c-0.373,-2.251 1.48,-4.633 3.92,-4.656c0.035,-0.001 0.035,0 0.071,0c0.503,0.035 0.94,0.466 0.954,0.972c0.016,0.579 -0.523,0.987 -1.153,1.033c-0.75,0.062 -1.435,0.57 -1.708,1.261c-0.468,1.188 0.448,2.728 1.865,2.732l0.001,0c0.016,0 0.032,0.001 0.048,0.001c0.09,0.007 0.176,0.029 0.256,0.062c0.15,0.049 0.326,0.138 0.458,0.294c0.183,0.22 0.234,0.505 0.18,0.776c-0.015,0.273 -0.138,0.534 -0.402,0.705c-0.103,0.067 -0.217,0.114 -0.337,0.14c-0.33,0.07 -0.688,0.048 -1.008,0.188c-0.707,0.309 -1.197,1.05 -1.199,1.835l0,2.997l1.999,0c0.004,0.001 0.96,0.211 0.999,0.948c0.028,0.537 -0.436,1.037 -0.999,1.052l-2.999,0c-0.17,-0.005 -0.217,-0.02 -0.309,-0.049c-0.402,-0.131 -0.677,-0.451 -0.691,-0.951c0,-1.35 -0.012,-2.7 0.001,-4.05c0.018,-1.131 0.564,-2.199 1.405,-2.938Zm9.572,-8.008c-1.94,0.018 -3.645,2.23 -2.681,4.144c0.791,1.57 3.113,2.115 4.562,1.008c1.242,-0.95 1.475,-2.983 0.392,-4.169c-0.572,-0.627 -1.427,-0.986 -2.273,-0.983Z"/></svg>