<svg xmlns="http://www.w3.org/2000/svg" xmlns:serif="http://www.serif.com/" fill-rule="evenodd" stroke-linejoin="round" stroke-miterlimit="2" clip-rule="evenodd" viewBox="0 0 32 32"><rect width="32" height="32" fill="none" serif:id="glasses nerd geek"/><path d="M26,17.998c0.537,0.023 0.977,0.462 1,1l0,3.969c-0.01,1.568 -1.341,3 -2.996,3.03c-1.723,0.011 -3.446,0.001 -5.168,0.001c-0.794,-0.005 -1.568,-0.325 -2.134,-0.884l-0.702,-0.702l-0.702,0.702c-0.105,0.103 -0.112,0.108 -0.163,0.151c-0.534,0.46 -1.235,0.719 -1.936,0.732c-1.723,0.011 -3.445,0.001 -5.168,0.001c-1.582,-0.01 -3.021,-1.379 -3.031,-3.031l0,-3.969c0.004,-0.087 0.014,-0.165 0.014,-0.165l2,-12c0,0 0.273,-0.804 0.986,-0.835l2,0c0.029,0.001 0.058,0.002 0.087,0.004c0.845,0.111 0.878,0.548 0.909,0.909c0.043,0.491 -0.33,0.985 -0.822,1.072c-0.077,0.013 -0.097,0.011 -0.174,0.015l-1.153,0l-1.667,10l18.82,0Zm-1,2l-18,0c0,0.997 -0.018,1.994 0,2.992c0.017,0.524 0.476,0.991 1.008,1.007c1.726,0.032 3.453,0.033 5.179,0c0.261,-0.008 0.514,-0.117 0.701,-0.302l1.405,-1.404c0.226,-0.207 0.392,-0.342 0.881,-0.278c0.324,0.072 0.382,0.139 0.533,0.278c0.475,0.475 0.942,0.958 1.425,1.424c0.184,0.173 0.429,0.275 0.681,0.282c1.726,0.033 3.453,0.032 5.179,0c0.533,-0.016 1.005,-0.481 1.008,-1.036l0,-2.963Zm-0.944,-13.999c0.182,0.016 0.232,0.036 0.327,0.075c0.315,0.131 0.521,0.34 0.603,0.759l1.334,8c0.118,0.858 -1.18,1.626 -1.804,0.741c-0.083,-0.117 -0.125,-0.187 -0.169,-0.412l-1.194,-7.164l-1.153,0c0,0 -1,-0.221 -1,-1c0,-0.531 0.393,-0.983 1,-1l2,0c0.019,0 0.037,0.001 0.056,0.001Z"/></svg>