<svg xmlns="http://www.w3.org/2000/svg" xmlns:serif="http://www.serif.com/" fill-rule="evenodd" fill="#8763da" stroke-linejoin="round" stroke-miterlimit="2" clip-rule="evenodd" viewBox="0 0 32 32"><rect width="32" height="32" fill="none" serif:id="graduation hat educate"/><path d="M21.02,18.64l-4.569,2.284c-0.444,0.197 -0.586,0.138 -0.898,0l-12.042,-6.021c-0.66,-0.37 -0.702,-1.401 0,-1.795l12.042,-6.022c0.131,-0.058 0.178,-0.118 0.542,-0.101c0.164,0.023 0.205,0.034 0.356,0.101l12.043,6.022c0.665,0.374 0.684,1.41 0,1.795l-2.122,1.061l0,4.063c-0.026,0.863 -1.389,1.425 -1.892,0.466c-0.072,-0.137 -0.108,-0.218 -0.115,-0.466l0,-3.06l-1.338,0.669l0,4.398c-0.015,0.448 -0.33,0.767 -0.793,1.062c-2.818,1.8 -6.367,2.472 -9.512,1.427c-1.154,-0.383 -2.24,-0.95 -3.252,-1.623c0,0 -0.478,-0.401 -0.493,-0.866l0,-1.053c0.009,-0.253 0.044,-0.328 0.113,-0.462c0.309,-0.596 1.288,-0.715 1.711,-0.117c0.115,0.163 0.173,0.272 0.183,0.579l0,0.507c2.218,1.371 4.956,1.951 7.411,1.214c0.893,-0.268 1.741,-0.673 2.54,-1.161l0.085,-0.052l0,-2.849Zm4.178,-4.328l0.613,-0.307l-9.809,-4.904l-9.809,4.904l9.809,4.905l6.045,-3.023l-6.188,-0.888c0,0 -0.339,-0.072 -0.539,-0.257c-0.578,-0.535 -0.293,-1.732 0.704,-1.74c0.02,0.001 0.04,0.002 0.06,0.003l0.061,0.007l9.053,1.3Z"/></svg>