<svg xmlns="http://www.w3.org/2000/svg" xmlns:serif="http://www.serif.com/" fill-rule="evenodd" fill="#4bd08b" stroke-linejoin="round" stroke-miterlimit="2" clip-rule="evenodd" viewBox="0 0 32 32"><rect width="32" height="32" fill="none" serif:id="ic integrated circuit"/><path d="M8.998,6.999c0.002,-0.342 0.004,-0.684 0.006,-1.026c0.029,-1.541 1.34,-2.93 2.961,-2.96c2.689,-0.017 5.379,-0.017 8.069,0c1.548,0.028 2.931,1.365 2.961,2.96c0.002,0.345 0.004,0.689 0.006,1.033c1.011,-0.006 2.022,-0.015 3.032,0.005c0.868,0.052 1.315,1.423 0.419,1.886c-0.14,0.073 -0.297,0.108 -0.459,0.112l-2.982,0c0.003,0.665 0.005,1.33 0.007,1.995c1.005,-0.006 2.01,-0.016 3.015,0.004c0.868,0.052 1.315,1.424 0.419,1.887c-0.14,0.072 -0.297,0.108 -0.459,0.111l-2.97,0c0.002,0.665 0.002,1.33 0.003,1.995c1.002,-0.006 2.005,-0.015 3.007,0.005c0.868,0.052 1.315,1.423 0.419,1.886c-0.14,0.073 -0.297,0.109 -0.459,0.112l-2.967,0c-0.001,0.665 -0.001,1.33 -0.003,1.995c1.004,-0.006 2.007,-0.016 3.01,0.004c0.866,0.052 1.315,1.424 0.419,1.887c-0.14,0.072 -0.297,0.108 -0.459,0.111l-2.975,0c-0.002,0.665 -0.004,1.33 -0.007,1.995c1.007,-0.006 2.015,-0.015 3.022,0.005c0.871,0.052 1.325,1.418 0.419,1.886c-0.14,0.073 -0.297,0.109 -0.459,0.112l-2.992,0c-0.002,0.345 -0.004,0.691 -0.006,1.036c-0.029,1.554 -1.362,2.951 -2.995,2.961c0,0 -0.966,-0.215 -1.001,-0.951c-0.026,-0.547 0.414,-1.044 1.01,-1.047c0.516,-0.01 0.971,-0.455 0.987,-0.975c0.037,-1.991 0.063,-3.982 0.078,-5.973c-0.02,-0.126 -0.02,-0.253 0.003,-0.373c0.008,-1.15 0.012,-2.3 0.012,-3.45c-0.059,-0.2 -0.064,-0.414 0,-0.607c-0.001,-1.187 -0.005,-2.374 -0.014,-3.561c-0.019,-0.118 -0.021,-0.237 -0.003,-0.351c-0.015,-1.908 -0.04,-3.815 -0.076,-5.722c-0.016,-0.508 -0.46,-0.959 -0.974,-0.975c-0.694,-0.013 -1.389,-0.022 -2.083,-0.028c-0.14,0.951 -0.557,1.798 -1.562,1.991c-1.134,0.217 -2.353,-0.711 -2.376,-1.937l-0.001,-0.054c-0.674,0.006 -1.349,0.016 -2.023,0.028c-0.507,0.016 -0.958,0.46 -0.974,0.975c-0.036,1.949 -0.062,3.899 -0.077,5.85c0.038,0.165 0.039,0.337 -0.004,0.498c-0.008,1.142 -0.012,2.285 -0.012,3.428c0.06,0.203 0.066,0.422 0,0.62c0.001,1.156 0.005,2.312 0.013,3.468c0.032,0.147 0.035,0.299 0.004,0.442c0.015,1.911 0.04,3.821 0.076,5.731c0.016,0.516 0.477,0.971 1.002,0.975l3.994,0c0.913,0.043 0.98,0.557 0.999,0.951c0.025,0.538 -0.443,1.021 -0.999,1.047c-1.344,0 -2.689,0.009 -4.034,0c-1.547,-0.029 -2.931,-1.366 -2.961,-2.961c-0.002,-0.345 -0.004,-0.691 -0.006,-1.036l-2.992,0c-0.878,-0.018 -1.374,-1.415 -0.459,-1.887c0.14,-0.073 0.297,-0.109 0.459,-0.112c0.994,0 1.988,-0.014 2.982,-0.011c-0.003,-0.662 -0.005,-1.325 -0.007,-1.988l-2.975,0c-0.886,-0.017 -1.383,-1.409 -0.459,-1.887c0.14,-0.073 0.297,-0.108 0.459,-0.111c0.99,0 1.98,-0.015 2.97,-0.011c-0.002,-0.663 -0.002,-1.326 -0.003,-1.988l-2.967,0c-0.89,-0.018 -1.384,-1.456 -0.424,-1.905c0.132,-0.061 0.276,-0.091 0.424,-0.094c0.989,0 1.978,-0.014 2.967,-0.011c0.001,-0.662 0.001,-1.325 0.003,-1.988l-2.97,0c-0.874,-0.017 -1.359,-1.422 -0.459,-1.887c0.14,-0.073 0.297,-0.108 0.459,-0.112c0.991,0 1.983,-0.014 2.975,-0.01c0.002,-0.663 0.004,-1.326 0.007,-1.988l-2.982,0c-0.878,-0.018 -1.374,-1.415 -0.459,-1.887c0.14,-0.073 0.297,-0.109 0.459,-0.112c0.997,0 1.995,-0.014 2.992,-0.011Z"/></svg>