<svg xmlns="http://www.w3.org/2000/svg" xmlns:serif="http://www.serif.com/" fill-rule="evenodd" stroke-linejoin="round" stroke-miterlimit="2" clip-rule="evenodd" viewBox="0 0 32 32"><rect width="32" height="32" fill="none" serif:id="laptop online learning"/><path d="M5,17.877l0,-13.877c0.023,-0.537 0.462,-0.977 1,-1l20,0c0.029,0.001 0.058,0.003 0.087,0.004c0.499,0.065 0.891,0.486 0.913,0.996l0,14c-0.023,0.537 -0.462,0.977 -1,1l-8.982,0c-0.851,-0.037 -0.921,-0.47 -0.984,-0.826c-0.091,-0.514 0.287,-1.067 0.811,-1.159c0.076,-0.013 0.096,-0.012 0.173,-0.015l0.941,0c-0.075,-0.668 -0.281,-1.285 -0.849,-1.664c-1.174,-0.782 -3.1,0.057 -3.11,1.667l0,0.997c-0.002,0.081 -0.017,0.159 -0.043,0.233c-0.035,0.175 -0.117,0.341 -0.25,0.474c-0.18,0.18 -0.316,0.276 -0.707,0.293l-6.219,0l-1.781,7.123l0,0.877l22,0l0,-0.877l-0.97,-3.88c-0.153,-0.764 0.71,-1.496 1.422,-1.135c0.248,0.126 0.395,0.241 0.518,0.649l1,4c0.01,0.05 0.024,0.085 0.03,0.243l0,2c-0.025,0.537 -0.451,0.975 -1,1l-24,0c-0.536,-0.025 -0.975,-0.46 -1,-1l0,-2c0.006,-0.158 0.02,-0.193 0.03,-0.243l1.97,-7.88Zm13,7.123l-4,0c-0.987,-0.02 -1.477,-1.971 0,-2c1.347,0 2.693,-0.026 4.04,0.001c0.975,0.058 1.437,1.97 -0.04,1.999Zm2,-8l5,0l0,-12l-18,0l0,12l5,0l0,-0.003c0.007,-1.161 0.566,-2.265 1.439,-3.017c-1.016,-0.9 -1.627,-2.284 -1.377,-3.687c0.323,-1.801 1.992,-3.257 3.887,-3.293c0.051,0 0.051,0 0.102,0c2.256,0.043 4.235,2.241 3.91,4.558c-0.133,0.952 -0.653,1.819 -1.381,2.445c0.85,0.739 1.413,1.815 1.42,2.994l0,0.003Zm-4.026,-8c-1.325,0.025 -2.391,1.593 -1.777,2.866c0.704,1.461 3.48,1.4 3.78,-0.561c0.174,-1.141 -0.762,-2.313 -2.003,-2.305Z"/></svg>