<svg xmlns="http://www.w3.org/2000/svg" xmlns:serif="http://www.serif.com/" fill-rule="evenodd" stroke-linejoin="round" stroke-miterlimit="2" clip-rule="evenodd" viewBox="0 0 32 32"><rect width="32" height="32" fill="none" serif:id="library book school"/><path d="M25.067,9.946l-1.193,-0.228c-0.495,-0.104 -0.856,-0.582 -0.812,-1.076c0.044,-0.491 0.483,-0.9 0.99,-0.915c0.013,0 0.027,0 0.04,0.001c0.071,0.003 0.089,0.005 0.159,0.017l4.018,0.767c0.981,0.207 1.086,2.222 -0.377,1.973l-0.816,-0.156l0,17.726c-0.022,0.535 -0.462,0.982 -1.005,1.004l-6.027,0c-0.278,-0.011 -0.353,-0.051 -0.489,-0.127c-0.049,-0.027 -0.094,-0.059 -0.136,-0.094c-0.11,-0.082 -0.207,-0.196 -0.28,-0.347c-0.062,-0.13 -0.093,-0.206 -0.099,-0.436l0,-5.023l-6.027,0l0,4.018l3.013,0c0.002,0.001 0.693,0.094 0.917,0.594c0.27,0.603 -0.205,1.388 -0.917,1.415l-10.044,0c-0.541,-0.02 -0.981,-0.357 -1.005,-1.004l0,-15.106c0.019,-0.497 0.399,-0.941 0.889,-0.998c0.147,-0.017 0.183,-0.003 0.231,0c0.489,0.076 0.87,0.496 0.889,0.998l0,14.101l4.018,0l0,-5.022c0.005,-0.183 0.022,-0.234 0.056,-0.332c0.138,-0.393 0.448,-0.659 0.948,-0.673l8.036,0c0.019,0.001 0.038,0.001 0.057,0.002c0.182,0.015 0.232,0.035 0.328,0.075c0.368,0.152 0.606,0.447 0.62,0.928l0,5.022l4.018,0l0,-17.104Zm-2.994,5.051c0.516,0.015 0.969,0.463 0.985,0.984c0.009,0.886 -0.006,1.99 -0.965,2.028c-0.527,0.021 -1.027,-0.428 -1.044,-0.984c-0.009,-0.905 0.028,-1.981 0.964,-2.028c0.02,0 0.04,-0.001 0.06,0Zm-8.036,0c0.516,0.015 0.969,0.463 0.985,0.984c0.009,0.886 -0.006,1.99 -0.965,2.028c-0.527,0.021 -1.027,-0.428 -1.044,-0.984c-0.009,-0.905 0.027,-1.981 0.965,-2.028c0.02,0 0.039,-0.001 0.059,0Zm4.018,0c0.516,0.015 0.969,0.463 0.985,0.984c0.007,0.768 0.048,1.656 -0.597,1.943c-0.594,0.263 -1.391,-0.185 -1.412,-0.899c-0.009,-0.905 0.028,-1.981 0.965,-2.028c0.02,0 0.039,-0.001 0.059,0Zm-8.036,0c0.516,0.015 0.969,0.463 0.985,0.984c0.007,0.768 0.049,1.656 -0.597,1.943c-0.594,0.263 -1.391,-0.185 -1.412,-0.899c-0.009,-0.905 0.02,-1.981 0.965,-2.028c0.02,0 0.039,-0.001 0.059,0Zm0.985,-7.863l0,-3.187c0.005,-0.18 0.021,-0.23 0.054,-0.326c0.154,-0.448 0.544,-0.683 1.119,-0.68c1.423,0.017 2.771,0.686 3.863,1.634c0,0 0.683,-0.563 1.288,-0.9c0.809,-0.449 1.719,-0.725 2.649,-0.733c0,0 1.047,0.116 1.072,1.005l0,6.027c-0.005,0.183 -0.022,0.233 -0.056,0.331c-0.145,0.416 -0.486,0.654 -1.064,0.676c-1.271,0.058 -2.356,0.895 -3.201,1.721c0,0 -0.83,0.59 -1.55,-0.153c-0.121,-0.124 -0.245,-0.245 -0.373,-0.362c-0.1,-0.091 -0.202,-0.18 -0.307,-0.266c-0.09,-0.072 -0.18,-0.142 -0.273,-0.21c-0.618,-0.449 -1.369,-0.787 -2.15,-0.735c0,0 -1.046,-0.119 -1.071,-1.002l0,-0.795l-6.843,1.306c-0.859,0.139 -1.653,-1.152 -0.786,-1.794c0.116,-0.086 0.184,-0.13 0.409,-0.179l7.22,-1.378Zm2.009,1.891c1.107,0.19 2.114,0.782 2.969,1.52c0,0 -0.053,0.16 0.203,-0.045c0.839,-0.667 1.795,-1.201 2.838,-1.423l0.017,-3.97c-0.877,0.281 -1.636,0.887 -2.301,1.557c0,0 -0.891,0.547 -1.554,-0.134c-0.036,-0.037 -0.073,-0.074 -0.11,-0.111c-0.593,-0.582 -1.269,-1.092 -2.053,-1.335l-0.009,-0.002l0,3.943Z"/></svg>