<svg xmlns="http://www.w3.org/2000/svg" xmlns:serif="http://www.serif.com/" fill-rule="evenodd" stroke-linejoin="round" stroke-miterlimit="2" clip-rule="evenodd" viewBox="0 0 32 32"><rect width="32" height="32" fill="none" serif:id="magnet bar magnetism"/><path d="M20,21l-18,0c-0.534,-0.022 -0.978,-0.46 -1,-1l0,-8c0.022,-0.533 0.46,-0.978 1,-1l8,0c0.028,0.001 0.055,0.002 0.083,0.003c0.614,0.077 0.722,0.343 0.833,0.595c0.24,0.549 -0.13,1.285 -0.751,1.388c-0.073,0.012 -0.092,0.011 -0.165,0.014l-1,0l0,6l11,0c0.453,0.019 0.527,0.126 0.677,0.264c0.577,0.531 0.211,1.699 -0.677,1.736Zm3,-8l-9,0c-0.581,-0.023 -1.08,-0.572 -0.988,-1.156c0.066,-0.416 0.418,-0.766 0.832,-0.832c0.069,-0.011 0.086,-0.009 0.156,-0.012l16,0c0.026,0.001 0.052,0.002 0.078,0.003c0.504,0.06 0.902,0.484 0.922,0.997l0,8c-0.019,0.481 -0.373,0.913 -0.844,0.988c-0.069,0.011 -0.086,0.009 -0.156,0.012l-6,0c-0.52,-0.02 -0.561,-0.147 -0.707,-0.293c-0.07,-0.07 -0.124,-0.149 -0.165,-0.234c-0.072,-0.12 -0.118,-0.26 -0.126,-0.417c-0.001,-0.019 -0.001,-0.037 -0.002,-0.056l0,-7Zm2,6l4,0l0,-6l-4,0l0,6Zm-22,-6l0,6l4,0l0,-6l-4,0Z"/></svg>