<svg xmlns="http://www.w3.org/2000/svg" xmlns:serif="http://www.serif.com/" fill-rule="evenodd" stroke-linejoin="round" stroke-miterlimit="2" clip-rule="evenodd" viewBox="0 0 32 32"><rect width="32" height="32" fill="none" serif:id="magnet pole u"/><path d="M4.995,11.013c-0.001,1.69 -0.001,3.38 0.005,5.07c0.044,4.683 3.376,9.169 7.921,10.49c5.008,1.456 10.912,-1.099 13.13,-6.106c0.621,-1.401 0.939,-2.936 0.943,-4.457l0,-1.998c0.037,-0.777 1.034,-1.293 1.655,-0.756c0.21,0.182 0.324,0.33 0.345,0.756c0,1.291 0.049,2.577 -0.131,3.84c-0.641,4.479 -3.786,8.526 -8.039,10.227c-3.845,1.538 -8.42,1.098 -11.899,-1.161c-3.615,-2.349 -5.911,-6.516 -5.925,-10.905l0,-11.999c0.025,-0.536 0.451,-0.974 1,-0.999l5.998,0c0.031,0.001 0.062,0.002 0.093,0.004c0.5,0.07 0.883,0.483 0.907,0.995l0,5.999c-0.043,0.913 -0.558,0.98 -0.952,0.999c-0.014,0 -0.028,0.001 -0.042,0.001l-0.006,0l-5.003,0Zm18.005,0c0.001,1.68 0,3.361 -0.005,5.042c-0.028,2.984 -2.149,5.816 -5.004,6.665c-2.333,0.694 -5.011,0.06 -6.787,-1.609c-1.375,-1.293 -2.188,-3.146 -2.205,-5.056l0,-2.043c0,0 0.253,-1.1 1.164,-0.986c0.464,0.097 0.815,0.503 0.835,0.986c0,1.302 -0.117,2.606 0.324,3.771c0.937,2.471 4.049,3.881 6.56,2.858c1.822,-0.741 3.107,-2.621 3.114,-4.631l0,-11.996c0.022,-0.533 0.46,-0.977 0.999,-0.999l5.999,0c0.533,0.022 0.977,0.46 1,0.999l0,5.999c-0.016,0.379 -0.093,0.492 -0.199,0.607c-0.14,0.224 -0.397,0.383 -0.801,0.393l-4.994,0Zm3.994,-2l0,-3.999l-3.999,0c0,1.333 0.002,2.666 0.003,3.999l3.996,0Zm-21.997,0l4.002,0l0,-3.999l-3.999,0c0,1.333 -0.002,2.666 -0.003,3.999Z"/></svg>