<svg xmlns="http://www.w3.org/2000/svg" xmlns:serif="http://www.serif.com/" fill-rule="evenodd" stroke-linejoin="round" stroke-miterlimit="2" clip-rule="evenodd" viewBox="0 0 32 32"><rect width="32" height="32" fill="none" serif:id="mathematic calc calculate"/><path d="M8.563,22.515l-2.298,-2.298c-0.526,-0.552 -0.2,-1.679 0.673,-1.711c0.032,-0.001 0.064,0 0.096,0.002c0.245,0.02 0.471,0.122 0.649,0.291l2.298,2.298l2.298,-2.298c0.2,-0.19 0.467,-0.296 0.745,-0.293c0.747,0.046 1.293,1.029 0.706,1.676c-0.011,0.012 -0.023,0.023 -0.034,0.035l-2.298,2.298l2.298,2.298c0.608,0.638 -0.049,2.017 -1.052,1.65c-0.091,-0.033 -0.178,-0.08 -0.255,-0.138c-0.039,-0.028 -0.075,-0.061 -0.11,-0.095l-2.298,-2.298l-2.298,2.298c-0.623,0.594 -1.976,-0.012 -1.666,-1.006c0.034,-0.108 0.086,-0.21 0.153,-0.301c0.029,-0.039 0.062,-0.075 0.095,-0.11l2.298,-2.298Zm17.454,3.007l-8.018,0c-0.23,-0.007 -0.305,-0.037 -0.435,-0.1c-0.615,-0.296 -0.745,-1.295 -0.145,-1.72c0.123,-0.087 0.264,-0.146 0.412,-0.171c0.056,-0.009 0.112,-0.012 0.168,-0.014l8.018,0c0.019,0.001 0.038,0.001 0.057,0.002c0.742,0.062 1.239,1.055 0.691,1.668c-0.188,0.211 -0.38,0.324 -0.748,0.335Zm0,-4.009l-8.018,0c-0.23,-0.007 -0.305,-0.037 -0.435,-0.1c-0.613,-0.295 -0.756,-1.286 -0.145,-1.72c0.123,-0.087 0.264,-0.146 0.412,-0.171c0.056,-0.009 0.112,-0.012 0.168,-0.014l8.018,0c0.019,0 0.038,0.001 0.057,0.002c0.738,0.062 1.246,1.047 0.691,1.668c-0.188,0.211 -0.38,0.324 -0.748,0.335Zm-17.039,-12.028l0,-3.007c0.006,-0.183 0.023,-0.234 0.057,-0.331c0.137,-0.392 0.446,-0.657 0.946,-0.671c0.018,0 0.037,0.001 0.056,0.001c0.182,0.016 0.232,0.036 0.327,0.075c0.367,0.152 0.606,0.446 0.619,0.926l0,3.007l3.007,0l0.056,0.002c0.735,0.062 1.238,1.056 0.691,1.668c-0.188,0.211 -0.38,0.324 -0.747,0.335l-3.007,0l0,3.006c-0.021,0.765 -1.039,1.311 -1.67,0.748c-0.211,-0.188 -0.324,-0.38 -0.335,-0.748l0,-3.006l-3.006,0c-0.231,-0.007 -0.306,-0.037 -0.435,-0.1c-0.615,-0.296 -0.752,-1.29 -0.145,-1.72c0.122,-0.087 0.264,-0.146 0.412,-0.171c0.055,-0.009 0.111,-0.012 0.168,-0.014l3.006,0Zm17.039,2.005l-8.018,0c-0.761,-0.022 -1.307,-1.045 -0.747,-1.671c0.188,-0.21 0.38,-0.324 0.747,-0.334l8.018,0c0.019,0.001 0.038,0.001 0.057,0.002c0.744,0.062 1.244,1.05 0.691,1.668c-0.188,0.211 -0.38,0.324 -0.748,0.335Z"/></svg>