<svg xmlns="http://www.w3.org/2000/svg" xmlns:serif="http://www.serif.com/" fill-rule="evenodd" stroke-linejoin="round" stroke-miterlimit="2" clip-rule="evenodd" viewBox="0 0 32 32"><rect width="32" height="32" fill="none" serif:id="microscope science lab laboratory"/><path d="M13.166,9.002l-3.175,0l0,0l-1,0l0,8.004l6.003,0l0,-1c0,0 0.258,-1.05 1.063,-0.999c0.508,0.032 0.919,0.399 0.937,0.999l0,2.001c-0.006,0.193 -0.021,0.225 -0.049,0.309c-0.13,0.402 -0.434,0.675 -0.951,0.691l-8.004,0c-0.205,-0.006 -0.261,-0.028 -0.368,-0.07c-0.373,-0.148 -0.617,-0.432 -0.632,-0.93l0,-10.005c0.006,-0.193 0.021,-0.225 0.049,-0.309c0.13,-0.402 0.435,-0.675 0.951,-0.692l1.001,0l0,-3.001c0.01,-0.543 0.418,-0.989 1,-1c1.347,0 2.695,-0.026 4.041,0c0.529,0.032 0.95,0.437 0.962,1l0,3.172c0.323,-0.113 0.672,-0.173 1.039,-0.17c1.208,0.023 2.285,0.906 2.725,2.031c4.236,0.328 8.223,3.27 9.642,7.38c0.398,1.153 0.596,2.375 0.6,3.591l0,8.007c-0.004,0.086 -0.02,0.169 -0.047,0.247c-0.034,0.173 -0.119,0.339 -0.263,0.477c-0.176,0.168 -0.3,0.258 -0.69,0.277l-24.012,0c-0.645,-0.031 -0.793,-0.33 -0.91,-0.585c-0.274,-0.601 0.206,-1.383 0.91,-1.416l23.011,0c0.002,-2.355 0.007,-4.709 0,-7.064c-0.042,-4.396 -3.63,-8.481 -8.189,-8.907c-0.032,0.089 -0.069,0.177 -0.111,0.264c-0.656,1.36 -2.436,2.052 -3.84,1.478c-1.403,-0.574 -2.186,-2.324 -1.693,-3.78Zm7.273,3.304c0.4,0.041 0.089,-0.131 0.818,0.395c2.3,1.659 3.73,4.44 3.741,7.304l0,4.004c-0.028,0.868 -1.43,1.414 -1.902,0.434c-0.061,-0.127 -0.091,-0.197 -0.099,-0.434c0,-2.597 0.303,-5.302 -0.896,-7.432c-0.551,-0.979 -1.345,-1.819 -2.283,-2.437c0,0 -0.88,-1.105 0.01,-1.677c0.108,-0.07 0.23,-0.118 0.356,-0.142c0.084,-0.016 0.17,-0.018 0.255,-0.015Zm-6.446,10.703l-4.002,0c-0.882,-0.018 -1.376,-1.415 -0.459,-1.889c0.141,-0.073 0.298,-0.109 0.459,-0.112c1.347,0 2.695,-0.026 4.042,0.001c0.874,0.052 1.317,1.424 0.42,1.888c-0.141,0.073 -0.298,0.109 -0.46,0.112Zm1.988,-14.007c-0.862,0.017 -1.412,1.484 -0.376,1.923c0.734,0.311 1.736,-0.587 1.257,-1.419c-0.179,-0.311 -0.502,-0.506 -0.881,-0.504Zm-4.989,-4.001l0,2l2.001,0l0,-2l-2.001,0Z"/></svg>