<svg xmlns="http://www.w3.org/2000/svg" xmlns:serif="http://www.serif.com/" fill-rule="evenodd" stroke-linejoin="round" stroke-miterlimit="2" clip-rule="evenodd" viewBox="0 0 32 32"><rect width="32" height="32" fill="none" serif:id="neutron atom galaxy"/><path d="M20.528,11.43c-1.991,-0.431 -4.091,-0.513 -6.149,-0.372c0,0 -1.497,-0.418 -0.955,-1.459c0.387,-0.745 1.654,-0.6 2.659,-0.598c3.401,0.016 6.888,0.628 9.697,2.329c1.643,0.996 3.117,2.466 3.219,4.466c0.004,0.093 -0.004,0.185 -0.024,0.275c0.035,0.535 -0.126,1.184 -0.385,1.735c-1.164,2.472 -3.97,3.7 -6.392,4.379c-0.171,0.582 -0.368,1.154 -0.593,1.711c-0.984,2.444 -2.666,4.964 -5.398,5.103c-0.07,0.003 -0.141,-0.001 -0.211,-0.012c-0.081,0.011 -0.167,0.014 -0.257,0.009c-1.8,-0.117 -3.361,-1.56 -4.293,-3.028c-0.412,-0.651 -0.019,-1.601 0.871,-1.573c1.007,0.07 1.394,1.416 2.068,1.961c0.445,0.36 0.989,0.627 1.567,0.647c0.17,-0.017 0.345,-0.013 0.515,-0.052c1.316,-0.302 2.154,-1.545 2.741,-2.637c1.475,-2.747 1.896,-5.992 1.779,-9.171c-0.046,-1.248 -0.194,-2.493 -0.459,-3.713Zm-4.518,-8.43c0.012,0 0.024,0 0.036,0c1.883,0.031 3.528,1.486 4.511,3.036c0.305,0.48 0.164,1.16 -0.319,1.44c-0.489,0.282 -1.092,0.052 -1.457,-0.502c-0.171,-0.259 -0.357,-0.508 -0.561,-0.741c-0.074,-0.085 -0.151,-0.168 -0.23,-0.248c-0.068,-0.068 -0.137,-0.135 -0.209,-0.199c-0.488,-0.437 -1.109,-0.782 -1.785,-0.786c0,0 -0.003,-0.001 -0.008,-0.002c-0.021,0.002 -0.043,0.003 -0.064,0.004c-1.249,0.055 -2.171,1.147 -2.757,2.056c-0.132,0.206 -0.255,0.417 -0.371,0.632c-1.475,2.746 -1.897,5.991 -1.779,9.171c0.046,1.247 0.193,2.491 0.458,3.71c2.001,0.434 4.109,0.514 6.149,0.375c0,0 0.929,0.131 1.053,0.821c0.11,0.612 -0.507,1.15 -1.13,1.189c-4.412,0.272 -9.184,-0.275 -12.571,-3.177c-1.09,-0.935 -1.957,-2.251 -1.976,-3.726c-0.001,-0.049 0.002,-0.098 0.007,-0.146c-0.003,-0.052 -0.003,-0.104 0.001,-0.158c0.136,-2.182 2.155,-3.902 3.922,-4.813c0.877,-0.452 1.796,-0.936 2.746,-1.161c0.521,-1.714 1.318,-3.305 2.443,-4.672c0.949,-1.154 2.28,-2.093 3.877,-2.103l0.014,0Zm-6.87,9.125c-1.295,0.464 -2.515,1.119 -3.413,2.165c-0.41,0.478 -0.724,1.071 -0.727,1.716c0,0 -0.002,0.011 -0.006,0.031c0.005,0.04 0.009,0.08 0.012,0.121c0.123,1.49 1.557,2.445 2.684,3.05c0.521,0.28 1.061,0.522 1.615,0.73c-0.465,-2.571 -0.568,-5.27 -0.165,-7.813Zm13.551,-0.063c0.446,2.587 0.471,5.27 0.036,7.824c1.263,-0.447 2.59,-1.068 3.533,-2.153c0.419,-0.482 0.741,-1.085 0.744,-1.735c0,0 0.002,-0.017 0.009,-0.045c-0.017,-0.141 -0.032,-0.283 -0.063,-0.417c-0.301,-1.315 -1.544,-2.153 -2.636,-2.74c-0.524,-0.281 -1.067,-0.525 -1.623,-0.734Zm-6.651,0.94c1.974,0.037 3.597,2.369 2.666,4.301c-0.812,1.684 -3.372,2.208 -4.774,0.871c-1.649,-1.572 -0.764,-5.119 2.031,-5.172c0.039,-0.001 0.039,-0.001 0.077,0Zm-0.051,2c-0.861,0.016 -1.412,1.483 -0.376,1.922c0.734,0.31 1.736,-0.587 1.257,-1.419c-0.179,-0.31 -0.503,-0.506 -0.881,-0.503Z"/></svg>