<svg xmlns="http://www.w3.org/2000/svg" xmlns:serif="http://www.serif.com/" fill-rule="evenodd" stroke-linejoin="round" stroke-miterlimit="2" clip-rule="evenodd" viewBox="0 0 32 32"><rect width="32" height="32" fill="none" serif:id="online course phone"/><path d="M22.029,3.019c1.538,0.028 2.928,1.338 2.958,2.958c0.041,6.682 0.041,13.364 0,20.046c-0.029,1.545 -1.365,2.929 -2.958,2.958c-4.019,0.025 -8.039,0.025 -12.058,0c-1.545,-0.029 -2.928,-1.364 -2.958,-2.958c-0.041,-6.682 -0.041,-13.364 0,-20.046c0.029,-1.545 1.365,-2.929 2.958,-2.958c4.019,-0.025 8.039,-0.025 12.058,0Zm-3.033,1.965l0,0.032c0,1.103 -0.894,1.997 -1.997,1.997l-1.998,0c-0.529,0 -1.037,-0.211 -1.412,-0.585c-0.374,-0.375 -0.585,-0.883 -0.585,-1.412l0,-0.011c-0.997,0.006 -1.995,0.011 -2.992,0.011c-0.522,0.003 -0.992,0.456 -1.002,0.986c-0.041,6.669 -0.124,13.34 0,20.009c0.016,0.506 0.46,0.957 0.974,0.973c4.01,0.075 8.022,0.075 12.032,0c0.508,-0.016 0.958,-0.459 0.974,-0.973c0.123,-6.673 0.123,-13.349 0,-20.022c-0.016,-0.507 -0.46,-0.957 -0.974,-0.973c-1.007,-0.019 -2.013,-0.028 -3.02,-0.032Zm-6.823,6.023c1.415,0.018 2.755,0.683 3.84,1.625c0,0 0.737,-0.606 1.39,-0.954c0.83,-0.441 1.774,-0.775 2.711,-0.662c0.963,0.116 1.297,1.954 -0.248,1.991c-1.221,0.04 -2.278,0.828 -3.099,1.643c0,0 -0.912,0.636 -1.603,-0.074c-0.037,-0.037 -0.073,-0.074 -0.11,-0.111c-0.587,-0.576 -1.261,-1.085 -2.041,-1.327l-0.009,3.917c1.126,0.194 2.157,0.811 3.022,1.574c0.043,-0.036 0.087,-0.072 0.131,-0.107c0.835,-0.663 1.785,-1.194 2.822,-1.415l0.018,-1.163c0.072,-0.854 1.447,-1.313 1.897,-0.377c0.062,0.129 0.092,0.204 0.099,0.433l0,1.999c-0.005,0.182 -0.022,0.232 -0.056,0.329c-0.144,0.415 -0.483,0.651 -1.057,0.672c-1.264,0.058 -2.342,0.89 -3.182,1.711c0,0 -0.826,0.587 -1.541,-0.152c-0.121,-0.123 -0.244,-0.243 -0.371,-0.36c-0.1,-0.09 -0.202,-0.179 -0.306,-0.264c-0.089,-0.072 -0.179,-0.142 -0.271,-0.209c-0.615,-0.446 -1.361,-0.782 -2.137,-0.73c0,0 -1.04,-0.119 -1.065,-0.997l0,-5.991c0.005,-0.179 0.021,-0.229 0.054,-0.324c0.153,-0.446 0.54,-0.679 1.112,-0.677Z"/></svg>