<svg xmlns="http://www.w3.org/2000/svg" xmlns:serif="http://www.serif.com/" fill-rule="evenodd" stroke-linejoin="round" stroke-miterlimit="2" clip-rule="evenodd" viewBox="0 0 32 32"><rect width="32" height="32" fill="none" serif:id="pencil write pen"/><path d="M23.577,13.003l-5.292,-5.292c-0.13,-0.137 -0.154,-0.188 -0.199,-0.284c-0.174,-0.372 -0.142,-0.768 0.199,-1.13l2.999,-2.999c0.199,-0.188 0.455,-0.293 0.736,-0.293c0.255,0.015 0.493,0.118 0.678,0.293l6,5.999c0.129,0.137 0.154,0.188 0.199,0.284c0.173,0.373 0.141,0.768 -0.199,1.13l-3,2.999l0,0l-13.806,13.806c-0.249,0.228 -0.34,0.236 -0.543,0.279l-7.192,1.193c-0.642,0.076 -1.231,-0.47 -1.149,-1.15l1.192,-7.192c0.041,-0.193 0.059,-0.302 0.279,-0.543l10.806,-10.806c0.327,-0.299 0.338,-0.319 0.819,-0.287c0.753,0.119 1.141,1.104 0.595,1.701l-10.579,10.579l-0.911,5.496l5.496,-0.911l12.872,-12.872Zm-3.171,-5.999l4.585,4.585l1.586,-1.585l-4.586,-4.585c-0.528,0.528 -1.057,1.057 -1.585,1.585Z"/></svg>