<svg xmlns="http://www.w3.org/2000/svg" xmlns:serif="http://www.serif.com/" fill-rule="evenodd" stroke-linejoin="round" stroke-miterlimit="2" clip-rule="evenodd" viewBox="0 0 32 32"><rect width="32" height="32" fill="none" serif:id="presentation group friends"/><path d="M4.436,24.982c-1.016,-0.9 -1.627,-2.284 -1.376,-3.688c0.322,-1.801 1.991,-3.257 3.886,-3.293c0.051,0 0.051,0 0.103,0c2.256,0.043 4.235,2.241 3.91,4.558c-0.133,0.952 -0.653,1.82 -1.381,2.446c0.85,0.739 1.412,1.816 1.42,2.994c0,0 -0.209,0.914 -0.88,0.996c-0.542,0.065 -1.092,-0.377 -1.119,-0.945c-0.007,-0.15 -0.003,-0.15 -0.007,-0.203c-0.115,-1.394 -1.961,-2.368 -3.191,-1.449c-0.495,0.371 -0.799,0.972 -0.804,1.607c0,0.082 0.038,-0.035 -0.029,0.236c-0.227,0.922 -2.04,1.017 -1.966,-0.444c0.055,-1.085 0.607,-2.106 1.434,-2.815Zm18.002,-0.001c-1.016,-0.9 -1.627,-2.284 -1.376,-3.687c0.322,-1.801 1.991,-3.257 3.886,-3.293c0.052,0 0.052,0 0.103,0c2.256,0.043 4.235,2.241 3.91,4.558c-0.133,0.952 -0.653,1.82 -1.381,2.446c0.849,0.739 1.413,1.816 1.42,2.994c0,0 -0.209,0.914 -0.88,0.996c-0.542,0.065 -1.092,-0.377 -1.119,-0.945c-0.007,-0.15 -0.003,-0.151 -0.007,-0.203c-0.115,-1.389 -1.961,-2.368 -3.191,-1.449c-0.495,0.371 -0.799,0.972 -0.804,1.607c0,0.082 0.038,-0.035 -0.029,0.236c-0.223,0.906 -2.042,1.06 -1.966,-0.444c0.055,-1.087 0.607,-2.107 1.434,-2.816Zm-9.005,-0.003c-1.014,-0.9 -1.623,-2.282 -1.372,-3.684c0.322,-1.801 1.991,-3.257 3.886,-3.293c0.052,0 0.052,0 0.103,0c2.256,0.043 4.235,2.241 3.91,4.558c-0.133,0.952 -0.653,1.82 -1.381,2.446c0.85,0.739 1.413,1.816 1.42,2.994c0,0 -0.38,1.256 -1.309,0.954c-0.397,-0.129 -0.68,-0.516 -0.691,-0.951c-0.003,-0.107 -0.003,-0.116 -0.006,-0.155c-0.114,-1.387 -1.953,-2.365 -3.185,-1.453c-0.5,0.37 -0.806,0.977 -0.81,1.609c-0.001,0.167 -0.011,0.167 -0.029,0.238c-0.222,0.901 -2.063,1.119 -1.963,-0.489c0.066,-1.071 0.61,-2.075 1.427,-2.774Zm-6.462,-4.977c-1.325,0.025 -2.391,1.593 -1.777,2.866c0.705,1.461 3.481,1.4 3.781,-0.56c0.174,-1.142 -0.762,-2.314 -2.004,-2.306Zm9.001,0c-1.325,0.025 -2.39,1.593 -1.777,2.866c0.705,1.461 3.481,1.4 3.781,-0.56c0.174,-1.142 -0.757,-2.314 -2.004,-2.306Zm9.001,0c-1.325,0.025 -2.39,1.593 -1.777,2.866c0.705,1.461 3.481,1.4 3.781,-0.56c0.174,-1.142 -0.757,-2.314 -2.004,-2.306Zm-17.976,-15.002l0,9.957c-0.038,0.882 -0.48,0.958 -0.912,0.996c-0.492,0.043 -0.986,-0.331 -1.073,-0.823c-0.013,-0.076 -0.011,-0.096 -0.015,-0.173l0,-10.957c0.024,-0.537 0.462,-0.977 1,-1l20.003,0c0.029,0.001 0.058,0.002 0.087,0.004c0.503,0.066 0.891,0.486 0.913,0.996l0,10.957c-0.026,0.6 -0.284,0.741 -0.5,0.866c-0.547,0.315 -1.369,-0.034 -1.485,-0.693c-0.014,-0.076 -0.012,-0.096 -0.015,-0.173l0,-9.957l-18.003,0Zm9.002,8.001l-6.001,0c-0.988,-0.024 -1.471,-1.965 0,-2l6.001,0c0.016,0 0.032,0.001 0.048,0.001c0.977,0.071 1.38,1.965 -0.048,1.999Zm6,-4l-12.001,0c-0.253,-0.009 -0.327,-0.044 -0.46,-0.113c-0.768,-0.397 -0.642,-1.85 0.46,-1.888l12.001,0c0.023,0.001 0.046,0.002 0.068,0.003c0.252,0.026 0.324,0.065 0.452,0.143c0.723,0.44 0.544,1.818 -0.52,1.855Z"/></svg>