<svg xmlns="http://www.w3.org/2000/svg" xmlns:serif="http://www.serif.com/" fill-rule="evenodd" stroke-linejoin="round" stroke-miterlimit="2" clip-rule="evenodd" viewBox="0 0 32 32"><rect width="32" height="32" fill="none" serif:id="program code coding"/><path d="M18.049,9.014c0.222,0.018 0.282,0.047 0.394,0.102c0.387,0.191 0.621,0.651 0.541,1.081c-0.011,0.06 -0.017,0.074 -0.034,0.132l-4.002,12.004c-0.088,0.237 -0.144,0.296 -0.252,0.401c-0.484,0.471 -1.447,0.257 -1.654,-0.429c-0.058,-0.19 -0.078,-0.311 0.008,-0.605l4.002,-12.003c0.153,-0.413 0.542,-0.69 0.997,-0.683Zm4.009,2.001c0.244,0.02 0.472,0.122 0.651,0.291l4.001,4.001c0.126,0.133 0.149,0.181 0.194,0.274c0.162,0.336 0.117,0.762 -0.119,1.057c-0.031,0.039 -0.041,0.048 -0.075,0.084l-4.001,4.001c-0.167,0.158 -0.242,0.19 -0.377,0.237c-0.641,0.224 -1.442,-0.374 -1.316,-1.112c0.025,-0.147 0.083,-0.289 0.17,-0.411c0.032,-0.046 0.07,-0.088 0.108,-0.128l3.294,-3.294l-3.294,-3.294c0,0 -0.442,-0.626 -0.194,-1.141c0.147,-0.304 0.455,-0.523 0.79,-0.56c0.108,-0.013 0.133,-0.006 0.168,-0.005Zm-12.004,0c0.459,0.039 0.52,0.159 0.652,0.291c0.368,0.369 0.378,1.015 0,1.415l-3.294,3.294l3.294,3.294c0,0 0.43,0.575 0.216,1.09c-0.242,0.586 -1.101,0.8 -1.59,0.363c-0.014,-0.013 -0.027,-0.026 -0.041,-0.039l-4.001,-4.001c-0.126,-0.133 -0.149,-0.181 -0.194,-0.273c-0.162,-0.337 -0.117,-0.762 0.119,-1.058c0.031,-0.039 0.041,-0.047 0.075,-0.084l4.001,-4.001c0.206,-0.194 0.471,-0.299 0.763,-0.291Z"/></svg>