<svg width="24" height="25" viewBox="0 0 24 25" fill="none" xmlns="http://www.w3.org/2000/svg">
<g clip-path="url(#clip0_856_4295)">
<path d="M4.05078 11.5003C4.30367 9.57105 5.251 7.80008 6.71546 6.51893C8.17992 5.23777 10.0611 4.53426 12.0068 4.54007C13.9526 4.54589 15.8295 5.26065 17.2863 6.55054C18.7431 7.84043 19.6798 9.61702 19.9212 11.5478C20.1625 13.4785 19.6919 15.431 18.5975 17.0398C17.503 18.6486 15.8598 19.8034 13.9753 20.288C12.0909 20.7726 10.0944 20.5537 8.35966 19.6725C6.6249 18.7912 5.27078 17.308 4.55078 15.5003M4.05078 20.5003V15.5003H9.05078" stroke="#F8B15D" stroke-width="2" stroke-linecap="round" stroke-linejoin="round"/>
</g>
<defs>
<clipPath id="clip0_856_4295">
<rect width="24" height="24" fill="white" transform="translate(0 0.5)"/>
</clipPath>
</defs>
</svg>
