<svg xmlns="http://www.w3.org/2000/svg" xmlns:serif="http://www.serif.com/" fill-rule="evenodd" stroke-linejoin="round" stroke-miterlimit="2" clip-rule="evenodd" viewBox="0 0 32 32"><rect width="32" height="32" fill="none" serif:id="research microbes magnifier"/><path d="M17.654,18.911c-0.029,0.023 -0.058,0.046 -0.088,0.069c-3.023,2.349 -7.582,2.48 -10.731,0.264c-2.472,-1.739 -3.968,-4.781 -3.826,-7.804c0.137,-2.896 1.751,-5.671 4.225,-7.225c0.691,-0.434 1.803,-0.268 1.782,0.722c-0.015,0.694 -0.857,1.021 -1.435,1.493c-2.166,1.773 -3.102,4.922 -2.233,7.593c1.006,3.093 4.353,5.291 7.723,4.778c2.559,-0.388 4.83,-2.304 5.629,-4.776c1.154,-3.571 -0.984,-7.891 -4.863,-8.943c0,0 -0.808,-0.393 -0.734,-1.076c0.048,-0.445 0.424,-0.829 0.869,-0.886c0.15,-0.019 0.187,-0.006 0.235,-0.002c3.247,0.481 6.615,4.191 6.829,8.272c0.114,2.18 -0.618,4.38 -1.967,6.092c0.492,0.485 0.977,0.976 1.463,1.467c0.352,-0.181 0.757,-0.29 1.211,-0.304c0.036,0 0.072,-0.001 0.108,0c0.764,0.013 1.51,0.321 2.062,0.853c1.442,1.424 2.876,2.857 4.3,4.299c1.271,1.321 0.975,3.799 -0.69,4.727c-1.116,0.623 -2.612,0.442 -3.563,-0.473c-1.442,-1.424 -2.875,-2.857 -4.299,-4.299c-0.827,-0.859 -0.945,-2.21 -0.481,-3.307c-0.512,-0.508 -1.017,-1.023 -1.526,-1.534Zm4.149,1.738c-0.766,0.014 -1.283,1.089 -0.715,1.694c1.4,1.454 2.827,2.881 4.281,4.281c0.693,0.65 2.43,-0.365 1.408,-1.427c-1.415,-1.433 -2.822,-2.876 -4.273,-4.273c-0.188,-0.176 -0.441,-0.276 -0.701,-0.275Z"/></svg>