<svg xmlns="http://www.w3.org/2000/svg" xmlns:serif="http://www.serif.com/" fill-rule="evenodd" fill="#8763da" stroke-linejoin="round" stroke-miterlimit="2" clip-rule="evenodd" viewBox="0 0 32 32"><rect width="32" height="32" fill="none" serif:id="ruler cm mm"/><path d="M7.985,19.429l-2.588,2.588l4.593,4.593l16.613,-16.613l-5.302,-5.301c0,0 -0.321,-0.349 -0.29,-0.78c0.038,-0.538 0.552,-0.963 1.118,-0.923c0.357,0.06 0.423,0.136 0.589,0.286l6.01,6.01c0.361,0.397 0.364,1.017 0,1.416l-18.029,18.03c-0.398,0.362 -1.01,0.371 -1.417,0l-6.01,-6.01c-0.361,-0.397 -0.364,-1.017 0,-1.417l14.023,-14.022c0.642,-0.584 1.008,-0.319 1.308,-0.094c0.456,0.341 0.504,1.075 0.108,1.51l-1.273,1.274c0.475,0.444 0.945,0.894 1.348,1.4c0.581,0.728 -0.455,2.286 -1.471,1.352c-0.444,-0.432 -0.881,-0.872 -1.317,-1.312l-2.584,2.584c0.431,0.432 0.859,0.867 1.291,1.299c0.674,0.693 -0.291,2.452 -1.396,1.436c-0.445,-0.432 -0.881,-0.872 -1.318,-1.313l-2.566,2.567c0.476,0.444 0.945,0.894 1.348,1.4c0.581,0.728 -0.455,2.286 -1.471,1.352c-0.444,-0.432 -0.881,-0.872 -1.317,-1.312Z"/></svg>