<svg xmlns="http://www.w3.org/2000/svg" xmlns:serif="http://www.serif.com/" fill-rule="evenodd" stroke-linejoin="round" stroke-miterlimit="2" clip-rule="evenodd" viewBox="0 0 32 32"><rect width="32" height="32" fill="none" serif:id="sports basketball ball"/><path d="M16.091,2.994c4.764,0.045 9.39,2.903 11.539,7.16c1.788,3.541 1.828,7.919 0.105,11.493c-2.453,5.087 -8.441,8.242 -14.19,7.14c-5.286,-1.014 -9.677,-5.623 -10.425,-10.962c-0.572,-4.081 0.927,-8.392 3.91,-11.236c2.367,-2.257 5.569,-3.563 8.893,-3.595c0.056,0 0.112,0 0.168,0Zm10.86,11.926c-0.21,0.267 -0.44,0.52 -0.687,0.755c-0.011,0.01 -0.021,0.02 -0.032,0.03c0.167,0.35 0.365,0.727 0.365,0.727c0.197,0.463 0.02,1.04 -0.416,1.288c-0.518,0.293 -1.123,0.087 -1.475,-0.587c-0.036,-0.07 -0.071,-0.139 -0.106,-0.209c-0.414,0.244 -0.846,0.46 -1.292,0.652c0.17,1.398 0.229,2.811 0.173,4.22c-0.027,0.703 -0.154,0.783 -0.322,0.943c-0.559,0.53 -1.696,0.109 -1.689,-0.772c0.057,-1.245 0.024,-2.489 -0.102,-3.72c-0.777,0.214 -1.576,0.378 -2.379,0.51c0,0.803 -0.127,1.605 -0.398,2.375c-0.81,2.303 -2.444,4.402 -4.504,5.674c2.046,0.367 4.196,0.182 6.141,-0.628c3.534,-1.47 6.184,-4.899 6.692,-8.7c0.114,-0.848 0.121,-1.708 0.031,-2.558Zm-19.325,-5.947c-1.183,1.372 -2.039,3.02 -2.406,4.815c-0.742,3.62 0.484,7.576 3.144,10.142c0.769,0.742 1.651,1.358 2.602,1.838c0.163,-0.024 0.333,-0.009 0.492,0.053c1.902,-0.64 3.534,-2.253 4.599,-4.005c0.516,-0.849 0.869,-1.812 0.956,-2.792c-2.882,0.313 -5.804,0.31 -8.696,0.206c-1.183,-0.042 -1.219,-0.458 -1.294,-0.792c-0.134,-0.589 0.353,-1.218 1.014,-1.222c2.937,0.113 5.907,0.265 8.8,-0.058c-0.621,-2.272 -2.571,-4.145 -4.505,-5.625c-1.4,-1.072 -2.877,-2.154 -4.579,-2.595l-0.127,0.035Zm16.419,-0.485c-0.173,-0.187 -0.353,-0.367 -0.539,-0.541c-1.994,-1.856 -4.691,-2.925 -7.428,-2.951c-0.048,0 -0.095,0 -0.143,0c-2.388,0.023 -4.701,0.899 -6.578,2.342c3.472,1.265 6.556,4.259 8.181,6.716c0.564,0.852 0.985,1.811 1.224,2.81c0.782,-0.154 1.556,-0.351 2.32,-0.604c-0.556,-2.981 -1.673,-5.852 -3.373,-8.446c0,0 -0.306,-0.695 0.038,-1.151c0.193,-0.257 0.388,-0.412 0.87,-0.396c0.542,0.059 0.65,0.269 0.904,0.661c1.669,2.601 2.829,5.529 3.45,8.578c0.299,-0.146 0.593,-0.31 0.874,-0.492c-0.445,-1.644 -0.452,-3.448 -0.189,-5.078c0.077,-0.477 0.182,-1.008 0.389,-1.448Zm1.509,2.072c-0.014,0.29 -0.011,0.599 -0.016,0.903c-0.009,0.624 0,1.258 0.064,1.88c0.273,-0.4 0.492,-0.842 0.64,-1.329c-0.195,-0.5 -0.425,-0.986 -0.688,-1.454Zm-17.28,-2.07c0.015,-0.024 0.067,-0.127 0,0Z"/></svg>