<svg xmlns="http://www.w3.org/2000/svg" xmlns:serif="http://www.serif.com/" fill-rule="evenodd" stroke-linejoin="round" stroke-miterlimit="2" clip-rule="evenodd" viewBox="0 0 32 32"><rect width="32" height="32" fill="none" serif:id="stamp ink stationery"/><path d="M24.014,29l-16,0c-0.52,-0.02 -0.561,-0.147 -0.707,-0.293c-0.547,-0.547 -0.165,-1.673 0.707,-1.707l16,0c0.026,0.001 0.052,0.002 0.078,0.003c0.974,0.115 1.344,1.941 -0.078,1.997Zm2,-4l-20,0c-0.537,-0.023 -0.977,-0.462 -1,-1c0,-1.531 -0.227,-3.157 0.617,-4.261c0.402,-0.526 0.982,-0.908 1.624,-1.08l5.641,-1.41c-0.438,-3.07 -0.907,-6.135 -1.315,-9.209c-0.307,-2.445 1.657,-4.958 4.31,-5.038c0.052,-0.002 0.103,-0.002 0.155,-0.002c2.508,0.026 4.751,2.398 4.397,5.07l-0.868,6.071c0,0 -0.27,0.836 -0.957,0.858c-0.521,0.017 -1.015,-0.435 -1.032,-0.966c-0.003,-0.078 0.002,-0.097 0.009,-0.174c0.29,-2.031 0.614,-4.057 0.87,-6.092c0.219,-1.848 -2.13,-3.582 -3.902,-2.297c-0.722,0.524 -1.119,1.449 -0.993,2.349l1.434,10.04c0.049,0.494 -0.264,0.968 -0.748,1.111c-2.172,0.543 -4.359,1.029 -6.516,1.63c-0.412,0.119 -0.719,0.52 -0.726,0.951l0,1.449l18,0c0,-1.012 0.131,-2.171 -0.747,-2.406l-6.496,-1.624c0,0 -1.213,-0.763 -0.534,-1.6c0.237,-0.292 0.517,-0.443 1.019,-0.34c2.173,0.543 4.347,1.074 6.517,1.629c1.261,0.337 2.22,1.541 2.241,2.87l0,2.471c0,0 -0.193,0.965 -1,1Z"/></svg>