<svg xmlns="http://www.w3.org/2000/svg" xmlns:serif="http://www.serif.com/" fill-rule="evenodd" fill="#fff" stroke-linejoin="round" stroke-miterlimit="2" clip-rule="evenodd" viewBox="0 0 32 32"><rect width="32" height="32" fill="none" serif:id="student table studying"/><path d="M7.938,17.016c0.035,-0.002 0.057,-0.001 0.075,0l15.944,0c0.034,-0.002 0.056,-0.001 0.075,0l1.972,0c0.029,0.002 0.058,0.003 0.087,0.004c0.671,0.088 0.79,0.404 0.88,0.738c0.143,0.533 -0.239,1.148 -0.793,1.245c-0.077,0.014 -0.097,0.012 -0.174,0.016l-1.001,0l0,9.01c-0.008,0.232 -0.037,0.302 -0.096,0.427c-0.289,0.614 -1.278,0.763 -1.715,0.162c-0.087,-0.119 -0.146,-0.257 -0.174,-0.401c-0.012,-0.062 -0.016,-0.125 -0.018,-0.188l0,-9.01l-14.016,0l0,2.002l11.013,0c0.023,0.001 0.045,0.002 0.068,0.002c0.744,0.077 0.797,0.378 0.896,0.729c0.153,0.547 -0.252,1.183 -0.828,1.262c-0.06,0.008 -0.076,0.007 -0.136,0.009l-11.013,0l0,5.006c-0.028,0.876 -1.449,1.4 -1.907,0.427c-0.059,-0.125 -0.088,-0.195 -0.095,-0.427l0,-9.01l-1.002,0c-0.284,-0.013 -0.362,-0.054 -0.5,-0.134c-0.525,-0.304 -0.659,-1.124 -0.208,-1.575c0.181,-0.181 0.317,-0.277 0.708,-0.294l1.958,0Zm5.465,-7.005c-0.724,-0.623 -1.242,-1.487 -1.377,-2.448c-0.311,-2.223 1.559,-4.518 3.915,-4.563c0.051,0 0.051,0 0.103,0c2.258,0.043 4.239,2.244 3.914,4.563c-0.134,0.953 -0.654,1.822 -1.383,2.449c0.851,0.739 1.414,1.817 1.422,2.997l0,1.004c-0.021,0.88 -1.46,1.389 -1.909,0.422c-0.041,-0.088 -0.069,-0.182 -0.083,-0.278c-0.114,-0.779 0.091,-1.703 -0.433,-2.376c-0.982,-1.26 -3.57,-0.721 -3.582,1.234l0,0.998c-0.024,0.992 -1.967,1.466 -2.003,0l0,-1.004c0.008,-1.154 0.558,-2.247 1.416,-2.998Zm2.563,-5.009c-1.313,0.025 -2.389,1.564 -1.79,2.848c0.528,1.129 2.232,1.503 3.179,0.62c0.638,-0.593 0.819,-1.622 0.41,-2.397c-0.343,-0.649 -1.054,-1.075 -1.799,-1.071Z"/></svg>