<svg xmlns="http://www.w3.org/2000/svg" xmlns:serif="http://www.serif.com/" fill-rule="evenodd" fill="#0085db" stroke-linejoin="round" stroke-miterlimit="2" clip-rule="evenodd" viewBox="0 0 32 32"><rect width="32" height="32" fill="none" serif:id="task homework paper"/><path d="M24,29l-16,0c-0.536,-0.025 -0.975,-0.46 -1,-1l0,-24c0.025,-0.537 0.451,-0.975 1,-1l10,0c0.002,0 0.004,0 0.007,0c0.006,0 0.012,0 0.019,0c0.259,0.012 0.463,0.082 0.681,0.293l2.998,2.998c0.607,0.628 -0.032,2.003 -1.037,1.651c-0.141,-0.049 -0.268,-0.132 -0.377,-0.237l-1.291,-1.291l0,2.586l5,0c0,0 0.088,0.003 0.189,0.018c0.713,0.173 1.068,1.165 0.501,1.706c-0.176,0.168 -0.299,0.257 -0.69,0.276l-6,0c-0.537,-0.025 -0.975,-0.451 -1,-1l0,-5l-8,0l0,22l14,0l0,-13c0.037,-0.775 1.036,-1.292 1.655,-0.756c0.21,0.182 0.325,0.33 0.345,0.756l0,14c-0.025,0.536 -0.46,0.975 -1,1Zm-6,-6l-6,0c-0.858,-0.021 -1.385,-1.402 -0.465,-1.885c0.1,-0.053 0.209,-0.088 0.321,-0.105c0.047,-0.006 0.096,-0.009 0.144,-0.01l6,0c0.016,0 0.032,0.001 0.048,0.001c0.973,0.071 1.416,1.964 -0.048,1.999Zm2,-4l-8,0c-0.23,-0.006 -0.305,-0.037 -0.434,-0.099c-0.774,-0.373 -0.604,-1.872 0.434,-1.901l8,0c0.019,0.001 0.037,0.001 0.056,0.002c0.509,0.042 0.944,0.484 0.944,0.998c0,0.531 -0.393,0.983 -1,1Zm0,-4l-8,0c-0.862,-0.024 -1.434,-1.419 -0.434,-1.901c0.129,-0.062 0.204,-0.093 0.434,-0.099l8,0c0.019,0.001 0.037,0.001 0.056,0.002c0.229,0.019 0.302,0.053 0.428,0.123c0.75,0.415 0.5,1.847 -0.484,1.875Zm-5.972,-6c0.969,0.041 1.419,1.94 0,2c-0.714,0.01 -1.437,0.073 -2.14,-0.006c-0.924,-0.104 -1.293,-1.936 0.084,-1.994c0.685,-0.009 1.371,-0.009 2.056,0Z"/></svg>