<svg xmlns="http://www.w3.org/2000/svg" xmlns:serif="http://www.serif.com/" fill-rule="evenodd" fill="#fff" stroke-linejoin="round" stroke-miterlimit="2" clip-rule="evenodd" viewBox="0 0 32 32"><rect width="32" height="32" fill="none" serif:id="teacher presentation teaching"/><path d="M29,29l-2.167,0c-1.063,-0.026 -1.586,-2.128 0,-2.167l1.083,0c0,-1.034 0.188,-2.165 -0.169,-3.009c-0.538,-1.272 -2.44,-1.728 -3.492,-0.726c-0.423,0.403 -0.668,0.976 -0.672,1.572l0,3.247c-0.026,1.074 -2.128,1.586 -2.167,0l0,-1.806l-6.283,-8.378c-0.288,-0.407 -0.23,-0.541 -0.213,-0.742c0.046,-0.534 0.439,-0.957 1.051,-0.991c0.02,0 0.041,0 0.061,0c0.328,0.019 0.628,0.173 0.834,0.433l4.92,6.559c0.272,-0.608 0.683,-1.157 1.192,-1.595c-1.102,-0.975 -1.766,-2.475 -1.494,-3.996c0.351,-1.961 2.213,-3.529 4.21,-3.567c0.056,-0.001 0.056,-0.001 0.112,0c2.448,0.046 4.585,2.441 4.235,4.937c-0.144,1.031 -0.707,1.971 -1.496,2.65c0.92,0.8 1.53,1.966 1.538,3.242l0,3.254c-0.004,0.19 -0.022,0.247 -0.059,0.354c-0.148,0.426 -0.498,0.716 -1.024,0.729Zm-23.831,-8.667c-1.45,0.023 -3.144,0.248 -3.249,-0.992c-0.049,-0.579 0.431,-1.148 1.049,-1.174c0.372,-0.005 0.743,-0.008 1.114,-0.008l0,-12.992l-1.083,0c-0.97,-0.045 -1.041,-0.575 -1.079,-0.984c-0.055,-0.595 0.462,-1.154 1.079,-1.183l23.833,0c0.033,0.002 0.067,0.003 0.1,0.005c0.849,0.118 1.285,1.282 0.63,1.879c-0.189,0.172 -0.319,0.264 -0.73,0.283l-1.083,0l0,5.416c-0.012,0.292 -0.053,0.372 -0.131,0.516c-0.309,0.571 -1.184,0.744 -1.686,0.281c-0.22,-0.202 -0.337,-0.495 -0.35,-0.797l0,-5.416l-17.333,0l0,13l5.416,0c0.004,0 0.75,0.095 0.993,0.648c0.263,0.601 -0.162,1.395 -0.814,1.504c-0.079,0.013 -0.099,0.011 -0.179,0.014l-6.497,0Zm20.553,-4.333c-1.436,0.028 -2.59,1.726 -1.926,3.105c0.585,1.213 2.434,1.596 3.448,0.63c0.676,-0.645 0.862,-1.746 0.424,-2.577c-0.375,-0.71 -1.091,-1.163 -1.946,-1.158Zm-10.806,-5.417c0.598,0 1.084,0.486 1.084,1.084c0,0.598 -0.486,1.083 -1.084,1.083c-0.597,0 -1.083,-0.485 -1.083,-1.083c0,-0.598 0.486,-1.084 1.083,-1.084Zm4.334,0c0.598,0 1.083,0.486 1.083,1.084c0,0.598 -0.485,1.083 -1.083,1.083c-0.598,0 -1.084,-0.485 -1.084,-1.083c0,-0.598 0.486,-1.084 1.084,-1.084Zm-8.667,0c0.598,0 1.083,0.486 1.083,1.084c0,0.598 -0.485,1.083 -1.083,1.083c-0.598,0 -1.083,-0.485 -1.083,-1.083c0,-0.598 0.485,-1.084 1.083,-1.084Z" serif:id="teacher presentation teaching"/></svg>